<svg width="13" height="14" viewBox="0 0 13 14" fill="none" xmlns="http://www.w3.org/2000/svg">
<path d="M4.60143 10.5354H4.33477C2.20143 10.5354 1.13477 10.0021 1.13477 7.33542V4.66875C1.13477 2.53542 2.20143 1.46875 4.33477 1.46875H8.60143C10.7348 1.46875 11.8014 2.53542 11.8014 4.66875V7.33542C11.8014 9.46875 10.7348 10.5354 8.60143 10.5354H8.33477C8.16943 10.5354 8.00943 10.6154 7.9081 10.7488L7.1081 11.8154C6.7561 12.2848 6.1801 12.2848 5.8281 11.8154L5.0281 10.7488C4.94277 10.6314 4.74543 10.5354 4.60143 10.5354Z" stroke="#787486" stroke-width="0.8" stroke-miterlimit="10" stroke-linecap="round" stroke-linejoin="round"/>
<path d="M8.59967 6.26667H8.60447" stroke="#787486" stroke-width="1.06667" stroke-linecap="round" stroke-linejoin="round"/>
<path d="M6.46686 6.26667H6.47165" stroke="#787486" stroke-width="1.06667" stroke-linecap="round" stroke-linejoin="round"/>
<path d="M4.3321 6.26667H4.33689" stroke="#787486" stroke-width="1.06667" stroke-linecap="round" stroke-linejoin="round"/>
</svg>
