<svg width="62" height="65" viewBox="0 0 62 65" fill="none" xmlns="http://www.w3.org/2000/svg">
<g filter="url(#filter0_d_967_28266)">
<rect x="7" y="55" width="50" height="48" rx="4.58198" transform="rotate(-90 7 55)" fill="#F8F8F8" shape-rendering="crispEdges"/>
<path d="M27.1843 37.6308H26.6393C22.2795 37.6308 20.0996 36.5408 20.0996 31.091V25.6413C20.0996 21.2815 22.2795 19.1016 26.6393 19.1016H35.359C39.7188 19.1016 41.8987 21.2815 41.8987 25.6413V31.091C41.8987 35.4509 39.7188 37.6308 35.359 37.6308H34.814C34.4761 37.6308 34.1491 37.7943 33.942 38.0667L32.3071 40.2467C31.5877 41.2058 30.4106 41.2058 29.6912 40.2467L28.0563 38.0667C27.8819 37.827 27.4786 37.6308 27.1843 37.6308Z" stroke="#553C9A" stroke-width="1.63493" stroke-miterlimit="10" stroke-linecap="round" stroke-linejoin="round"/>
<path d="M35.3534 28.9122H35.3632" stroke="#553C9A" stroke-width="2.17991" stroke-linecap="round" stroke-linejoin="round"/>
<path d="M30.9941 28.9122H31.0039" stroke="#553C9A" stroke-width="2.17991" stroke-linecap="round" stroke-linejoin="round"/>
<path d="M26.6347 28.9122H26.6445" stroke="#553C9A" stroke-width="2.17991" stroke-linecap="round" stroke-linejoin="round"/>
</g>
<defs>
<filter id="filter0_d_967_28266" x="0.127025" y="0.418017" width="61.7459" height="63.7459" filterUnits="userSpaceOnUse" color-interpolation-filters="sRGB">
<feFlood flood-opacity="0" result="BackgroundImageFix"/>
<feColorMatrix in="SourceAlpha" type="matrix" values="0 0 0 0 0 0 0 0 0 0 0 0 0 0 0 0 0 0 127 0" result="hardAlpha"/>
<feOffset dy="2.29099"/>
<feGaussianBlur stdDeviation="3.43649"/>
<feComposite in2="hardAlpha" operator="out"/>
<feColorMatrix type="matrix" values="0 0 0 0 0 0 0 0 0 0 0 0 0 0 0 0 0 0 0.15 0"/>
<feBlend mode="normal" in2="BackgroundImageFix" result="effect1_dropShadow_967_28266"/>
<feBlend mode="normal" in="SourceGraphic" in2="effect1_dropShadow_967_28266" result="shape"/>
</filter>
</defs>
</svg>
