<svg width="13" height="14" viewBox="0 0 13 14" fill="none" xmlns="http://www.w3.org/2000/svg">
<path d="M4.95333 6.0666C4.9 6.06127 4.836 6.06127 4.77733 6.0666C3.508 6.02394 2.5 4.98394 2.5 3.70394C2.5 2.39727 3.556 1.33594 4.868 1.33594C6.17467 1.33594 7.236 2.39727 7.236 3.70394C7.23067 4.98394 6.22267 6.02394 4.95333 6.0666Z" stroke="#787486" stroke-width="0.8" stroke-linecap="round" stroke-linejoin="round"/>
<path d="M8.81933 2.39844C9.854 2.39844 10.686 3.23577 10.686 4.2651C10.686 5.2731 9.886 6.09444 8.88867 6.13177C8.846 6.12644 8.798 6.12644 8.75 6.13177" stroke="#787486" stroke-width="0.8" stroke-linecap="round" stroke-linejoin="round"/>
<path d="M2.28831 8.02888C0.997646 8.89288 0.997646 10.3009 2.28831 11.1595C3.75498 12.1409 6.16031 12.1409 7.62698 11.1595C8.91765 10.2955 8.91765 8.88754 7.62698 8.02888C6.16565 7.05287 3.76031 7.05287 2.28831 8.02888Z" stroke="#787486" stroke-width="0.8" stroke-linecap="round" stroke-linejoin="round"/>
<path d="M9.84961 10.9344C10.2336 10.8544 10.5963 10.6997 10.8949 10.4704C11.7269 9.84637 11.7269 8.81704 10.8949 8.19304C10.6016 7.96904 10.2443 7.81971 9.86561 7.73438" stroke="#787486" stroke-width="0.8" stroke-linecap="round" stroke-linejoin="round"/>
</svg>
