<svg width="146" height="115" viewBox="0 0 146 115" fill="none" xmlns="http://www.w3.org/2000/svg">
<path d="M15.1976 65.0648C13.8851 65.0648 12.7175 64.8517 11.6948 64.4256C10.6777 63.9938 9.87944 63.4057 9.29989 62.6614C8.72035 61.9171 8.43058 61.0733 8.43058 60.1301C8.43058 59.4029 8.59535 58.7353 8.92489 58.1273C9.26012 57.5137 9.71467 57.0051 10.2885 56.6017C10.8624 56.1926 11.5044 55.9313 12.2147 55.8176V55.6983C11.2828 55.5108 10.5272 55.0591 9.94762 54.3432C9.36808 53.6216 9.0783 52.7836 9.0783 51.829C9.0783 50.9256 9.34251 50.1216 9.87092 49.4171C10.3993 48.7069 11.1238 48.15 12.0442 47.7466C12.9703 47.3375 14.0215 47.133 15.1976 47.133C16.3738 47.133 17.4221 47.3375 18.3425 47.7466C19.2686 48.1557 19.9959 48.7154 20.5243 49.4256C21.0527 50.1301 21.3198 50.9313 21.3255 51.829C21.3198 52.7892 21.0243 53.6273 20.4391 54.3432C19.8539 55.0591 19.1039 55.5108 18.1891 55.6983V55.8176C18.888 55.9313 19.5215 56.1926 20.0897 56.6017C20.6635 57.0051 21.1181 57.5137 21.4533 58.1273C21.7942 58.7353 21.9675 59.4029 21.9732 60.1301C21.9675 61.0733 21.6749 61.9171 21.0953 62.6614C20.5158 63.4057 19.7147 63.9938 18.6919 64.4256C17.6749 64.8517 16.5101 65.0648 15.1976 65.0648ZM15.1976 62.3546C15.7828 62.3546 16.2942 62.2495 16.7317 62.0392C17.1692 61.8233 17.5101 61.5279 17.7544 61.1529C18.0044 60.7722 18.1294 60.3347 18.1294 59.8404C18.1294 59.3347 18.0016 58.8887 17.7459 58.5023C17.4902 58.1103 17.1436 57.8034 16.7061 57.5819C16.2686 57.3546 15.7658 57.2409 15.1976 57.2409C14.6351 57.2409 14.1323 57.3546 13.6891 57.5819C13.2459 57.8034 12.8965 58.1103 12.6408 58.5023C12.3908 58.8887 12.2658 59.3347 12.2658 59.8404C12.2658 60.3347 12.388 60.7722 12.6323 61.1529C12.8766 61.5279 13.2203 61.8233 13.6635 62.0392C14.1067 62.2495 14.6181 62.3546 15.1976 62.3546ZM15.1976 54.5563C15.6863 54.5563 16.1209 54.4569 16.5016 54.258C16.8823 54.0591 17.1806 53.7836 17.3965 53.4313C17.6124 53.079 17.7203 52.6728 17.7203 52.2125C17.7203 51.758 17.6124 51.3603 17.3965 51.0194C17.1806 50.6728 16.8851 50.4029 16.5101 50.2097C16.1351 50.0108 15.6976 49.9114 15.1976 49.9114C14.7033 49.9114 14.2658 50.0108 13.8851 50.2097C13.5044 50.4029 13.2061 50.6728 12.9902 51.0194C12.78 51.3603 12.6749 51.758 12.6749 52.2125C12.6749 52.6728 12.7828 53.079 12.9988 53.4313C13.2147 53.7836 13.513 54.0591 13.8936 54.258C14.2743 54.4569 14.709 54.5563 15.1976 54.5563ZM31.2523 65.0648C30.3546 65.0591 29.4881 64.9086 28.6529 64.6131C27.8233 64.3176 27.079 63.8375 26.4199 63.1728C25.7608 62.508 25.2381 61.6273 24.8517 60.5307C24.4711 59.4341 24.2807 58.0875 24.2807 56.4909C24.2864 55.025 24.454 53.7154 24.7836 52.562C25.1188 51.4029 25.5961 50.4199 26.2154 49.6131C26.8404 48.8063 27.5875 48.1926 28.4569 47.7722C29.3262 47.3461 30.3006 47.133 31.3801 47.133C32.5449 47.133 33.5733 47.3603 34.4654 47.8148C35.3574 48.2637 36.0733 48.8745 36.6131 49.6472C37.1586 50.4199 37.4881 51.2864 37.6017 52.2466H33.9625C33.8205 51.6387 33.5222 51.1614 33.0676 50.8148C32.6131 50.4682 32.0506 50.2949 31.3801 50.2949C30.2438 50.2949 29.3801 50.7892 28.7892 51.7779C28.204 52.7665 27.9057 54.1103 27.8944 55.8091H28.0137C28.275 55.2921 28.6273 54.8517 29.0705 54.4881C29.5194 54.1188 30.0279 53.8375 30.5961 53.6444C31.1699 53.4455 31.775 53.3461 32.4114 53.3461C33.4455 53.3461 34.3659 53.5904 35.1728 54.079C35.9796 54.562 36.6159 55.2267 37.0819 56.0733C37.5478 56.9199 37.7807 57.8887 37.7807 58.9796C37.7807 60.1614 37.5051 61.2125 36.954 62.133C36.4086 63.0534 35.6444 63.775 34.6614 64.2978C33.6841 64.8148 32.5478 65.0705 31.2523 65.0648ZM31.2353 62.1671C31.8034 62.1671 32.312 62.0307 32.7608 61.758C33.2097 61.4853 33.562 61.1159 33.8176 60.65C34.0733 60.1841 34.2012 59.6614 34.2012 59.0819C34.2012 58.5023 34.0733 57.9824 33.8176 57.5222C33.5676 57.062 33.2211 56.6955 32.7779 56.4228C32.3347 56.15 31.829 56.0137 31.2608 56.0137C30.8347 56.0137 30.4398 56.0932 30.0762 56.2523C29.7182 56.4114 29.4029 56.633 29.1301 56.9171C28.8631 57.2012 28.6529 57.5307 28.4995 57.9057C28.3461 58.275 28.2694 58.6699 28.2694 59.0904C28.2694 59.6529 28.3972 60.1671 28.6529 60.633C28.9142 61.0989 29.2665 61.4711 29.7097 61.7495C30.1586 62.0279 30.6671 62.1671 31.2353 62.1671ZM49.9512 61.5534V60.633C49.9512 59.9341 50.0989 59.2921 50.3944 58.7069C50.6955 58.1159 51.1301 57.6444 51.6983 57.2921C52.2722 56.9341 52.9711 56.7551 53.7949 56.7551C54.6301 56.7551 55.3319 56.9313 55.9 57.2836C56.4739 57.6358 56.9057 58.1074 57.1955 58.6983C57.4909 59.2836 57.6387 59.9284 57.6387 60.633V61.5534C57.6387 62.2523 57.4909 62.8972 57.1955 63.4881C56.9 64.0733 56.4654 64.5421 55.8915 64.8944C55.3176 65.2523 54.6188 65.4313 53.7949 65.4313C52.9597 65.4313 52.258 65.2523 51.6898 64.8944C51.1216 64.5421 50.6898 64.0733 50.3944 63.4881C50.0989 62.8972 49.9512 62.2523 49.9512 61.5534ZM52.4313 60.633V61.5534C52.4313 61.9569 52.5279 62.3375 52.7211 62.6955C52.9199 63.0534 53.2779 63.2324 53.7949 63.2324C54.312 63.2324 54.6642 63.0563 54.8517 62.704C55.0449 62.3517 55.1415 61.9682 55.1415 61.5534V60.633C55.1415 60.2182 55.0506 59.8319 54.8688 59.4739C54.687 59.1159 54.329 58.937 53.7949 58.937C53.2836 58.937 52.9284 59.1159 52.7296 59.4739C52.5307 59.8319 52.4313 60.2182 52.4313 60.633ZM40.9938 51.5648V50.6444C40.9938 49.9398 41.1444 49.2949 41.4455 48.7097C41.7466 48.1188 42.1813 47.6472 42.7495 47.2949C43.3233 46.9426 44.0165 46.7665 44.829 46.7665C45.6699 46.7665 46.3745 46.9426 46.9426 47.2949C47.5108 47.6472 47.9426 48.1188 48.2381 48.7097C48.5336 49.2949 48.6813 49.9398 48.6813 50.6444V51.5648C48.6813 52.2694 48.5307 52.9142 48.2296 53.4995C47.9341 54.0847 47.4995 54.5534 46.9256 54.9057C46.3574 55.2523 45.6586 55.4256 44.829 55.4256C43.9995 55.4256 43.2978 55.2495 42.7239 54.8972C42.1557 54.5392 41.7239 54.0705 41.4284 53.4909C41.1387 52.9057 40.9938 52.2637 40.9938 51.5648ZM43.4909 50.6444V51.5648C43.4909 51.9796 43.5875 52.3631 43.7807 52.7154C43.9796 53.0676 44.329 53.2438 44.829 53.2438C45.3517 53.2438 45.7069 53.0676 45.8944 52.7154C46.0875 52.3631 46.1841 51.9796 46.1841 51.5648V50.6444C46.1841 50.2296 46.0932 49.8432 45.9114 49.4853C45.7296 49.1273 45.3688 48.9483 44.829 48.9483C44.3233 48.9483 43.9739 49.1301 43.7807 49.4938C43.5875 49.8574 43.4909 50.2409 43.4909 50.6444ZM42.1188 64.8262L54.1188 47.3716H56.3517L44.3517 64.8262H42.1188Z" fill="black"/>
<path d="M12.2948 13.8099C11.4362 13.8099 10.7222 13.6513 10.1528 13.3339C9.59283 13.0166 9.16816 12.5733 8.87883 12.0039C8.58949 11.4346 8.43083 10.7719 8.40283 10.0159C8.39349 9.63326 8.38883 9.22259 8.38883 8.78392C8.38883 8.34525 8.39349 7.92525 8.40283 7.52392C8.43083 6.76792 8.58949 6.10525 8.87883 5.53592C9.16816 4.96659 9.59283 4.52325 10.1528 4.20592C10.7222 3.88859 11.4362 3.72992 12.2948 3.72992C12.9388 3.72992 13.5035 3.81859 13.9888 3.99592C14.4742 4.17325 14.8755 4.41125 15.1928 4.70992C15.5195 5.00859 15.7668 5.34459 15.9348 5.71792C16.1028 6.08192 16.1962 6.45992 16.2148 6.85192C16.2242 6.93592 16.1962 7.00592 16.1308 7.06192C16.0748 7.11792 16.0048 7.14592 15.9208 7.14592H15.1508C15.0668 7.14592 14.9922 7.12259 14.9268 7.07592C14.8708 7.02926 14.8288 6.94526 14.8008 6.82392C14.6422 6.09592 14.3435 5.59659 13.9048 5.32592C13.4755 5.05526 12.9342 4.91992 12.2808 4.91992C11.5342 4.91992 10.9415 5.13459 10.5028 5.56392C10.0642 5.98392 9.82616 6.66059 9.78883 7.59392C9.76083 8.35925 9.76083 9.14325 9.78883 9.94592C9.82616 10.8793 10.0642 11.5606 10.5028 11.9899C10.9415 12.4099 11.5342 12.6199 12.2808 12.6199C12.9342 12.6199 13.4755 12.4846 13.9048 12.2139C14.3435 11.9433 14.6422 11.4439 14.8008 10.7159C14.8288 10.5946 14.8708 10.5106 14.9268 10.4639C14.9922 10.4173 15.0668 10.3939 15.1508 10.3939H15.9208C16.0048 10.3939 16.0748 10.4219 16.1308 10.4779C16.1962 10.5339 16.2242 10.6039 16.2148 10.6879C16.1962 11.0799 16.1028 11.4626 15.9348 11.8359C15.7668 12.1999 15.5195 12.5313 15.1928 12.8299C14.8755 13.1286 14.4742 13.3666 13.9888 13.5439C13.5035 13.7213 12.9388 13.8099 12.2948 13.8099ZM20.471 13.8099C19.8737 13.8099 19.365 13.6793 18.945 13.4179C18.5344 13.1473 18.2217 12.7739 18.007 12.2979C17.7924 11.8219 17.685 11.2759 17.685 10.6599V6.71192C17.685 6.61859 17.713 6.54392 17.769 6.48792C17.8344 6.42259 17.9137 6.38992 18.007 6.38992H18.707C18.8004 6.38992 18.875 6.42259 18.931 6.48792C18.9964 6.54392 19.029 6.61859 19.029 6.71192V10.5899C19.029 11.9806 19.6357 12.6759 20.849 12.6759C21.4277 12.6759 21.8897 12.4939 22.235 12.1299C22.5897 11.7566 22.767 11.2433 22.767 10.5899V6.71192C22.767 6.61859 22.795 6.54392 22.851 6.48792C22.9164 6.42259 22.9957 6.38992 23.089 6.38992H23.775C23.8777 6.38992 23.957 6.42259 24.013 6.48792C24.069 6.54392 24.097 6.61859 24.097 6.71192V13.3479C24.097 13.4413 24.069 13.5206 24.013 13.5859C23.957 13.6419 23.8777 13.6699 23.775 13.6699H23.131C23.0377 13.6699 22.9584 13.6419 22.893 13.5859C22.837 13.5206 22.809 13.4413 22.809 13.3479V12.7319C22.557 13.0586 22.249 13.3199 21.885 13.5159C21.5304 13.7119 21.059 13.8099 20.471 13.8099ZM26.3449 13.6699C26.2516 13.6699 26.1723 13.6419 26.1069 13.5859C26.0509 13.5206 26.0229 13.4413 26.0229 13.3479V6.72592C26.0229 6.63259 26.0509 6.55325 26.1069 6.48792C26.1723 6.42259 26.2516 6.38992 26.3449 6.38992H26.9889C27.0823 6.38992 27.1616 6.42259 27.2269 6.48792C27.2923 6.55325 27.3249 6.63259 27.3249 6.72592V7.34192C27.5116 7.02459 27.7683 6.78659 28.0949 6.62792C28.4216 6.46925 28.8136 6.38992 29.2709 6.38992H29.8309C29.9243 6.38992 29.9989 6.42259 30.0549 6.48792C30.1109 6.54392 30.1389 6.61859 30.1389 6.71192V7.28592C30.1389 7.37925 30.1109 7.45392 30.0549 7.50992C29.9989 7.56592 29.9243 7.59392 29.8309 7.59392H28.9909C28.4869 7.59392 28.0903 7.74326 27.8009 8.04192C27.5116 8.33125 27.3669 8.72792 27.3669 9.23192V13.3479C27.3669 13.4413 27.3343 13.5206 27.2689 13.5859C27.2036 13.6419 27.1243 13.6699 27.0309 13.6699H26.3449ZM31.5093 13.6699C31.4159 13.6699 31.3366 13.6419 31.2713 13.5859C31.2153 13.5206 31.1873 13.4413 31.1873 13.3479V6.72592C31.1873 6.63259 31.2153 6.55325 31.2713 6.48792C31.3366 6.42259 31.4159 6.38992 31.5093 6.38992H32.1533C32.2466 6.38992 32.3259 6.42259 32.3913 6.48792C32.4566 6.55325 32.4893 6.63259 32.4893 6.72592V7.34192C32.6759 7.02459 32.9326 6.78659 33.2593 6.62792C33.5859 6.46925 33.9779 6.38992 34.4353 6.38992H34.9953C35.0886 6.38992 35.1633 6.42259 35.2193 6.48792C35.2753 6.54392 35.3033 6.61859 35.3033 6.71192V7.28592C35.3033 7.37925 35.2753 7.45392 35.2193 7.50992C35.1633 7.56592 35.0886 7.59392 34.9953 7.59392H34.1553C33.6513 7.59392 33.2546 7.74326 32.9653 8.04192C32.6759 8.33125 32.5313 8.72792 32.5313 9.23192V13.3479C32.5313 13.4413 32.4986 13.5206 32.4333 13.5859C32.3679 13.6419 32.2886 13.6699 32.1953 13.6699H31.5093ZM39.1129 13.8099C38.1516 13.8099 37.3863 13.5159 36.8169 12.9279C36.2476 12.3306 35.9349 11.5186 35.8789 10.4919C35.8696 10.3706 35.8649 10.2166 35.8649 10.0299C35.8649 9.83392 35.8696 9.67526 35.8789 9.55392C35.9163 8.89126 36.0703 8.31259 36.3409 7.81792C36.6116 7.31392 36.9803 6.92659 37.4469 6.65592C37.9229 6.38525 38.4783 6.24992 39.1129 6.24992C39.8223 6.24992 40.4149 6.39925 40.8909 6.69792C41.3763 6.99659 41.7449 7.42125 41.9969 7.97192C42.2489 8.52259 42.3749 9.16659 42.3749 9.90392V10.1419C42.3749 10.2446 42.3423 10.3239 42.2769 10.3799C42.2209 10.4359 42.1463 10.4639 42.0529 10.4639H37.2089C37.2089 10.4733 37.2089 10.4919 37.2089 10.5199C37.2089 10.5479 37.2089 10.5713 37.2089 10.5899C37.2276 10.9726 37.3116 11.3319 37.4609 11.6679C37.6103 11.9946 37.8249 12.2606 38.1049 12.4659C38.3849 12.6713 38.7209 12.7739 39.1129 12.7739C39.4489 12.7739 39.7289 12.7226 39.9529 12.6199C40.1769 12.5173 40.3589 12.4053 40.4989 12.2839C40.6389 12.1533 40.7323 12.0553 40.7789 11.9899C40.8629 11.8686 40.9283 11.7986 40.9749 11.7799C41.0216 11.7519 41.0963 11.7379 41.1989 11.7379H41.8709C41.9643 11.7379 42.0389 11.7659 42.0949 11.8219C42.1603 11.8686 42.1883 11.9386 42.1789 12.0319C42.1696 12.1719 42.0949 12.3446 41.9549 12.5499C41.8149 12.7459 41.6143 12.9419 41.3529 13.1379C41.0916 13.3339 40.7743 13.4973 40.4009 13.6279C40.0276 13.7493 39.5983 13.8099 39.1129 13.8099ZM37.2089 9.49792H41.0449V9.45592C41.0449 9.03592 40.9656 8.66259 40.8069 8.33592C40.6576 8.00926 40.4383 7.75259 40.1489 7.56592C39.8596 7.36992 39.5143 7.27192 39.1129 7.27192C38.7116 7.27192 38.3663 7.36992 38.0769 7.56592C37.7969 7.75259 37.5823 8.00926 37.4329 8.33592C37.2836 8.66259 37.2089 9.03592 37.2089 9.45592V9.49792ZM44.2169 13.6699C44.1236 13.6699 44.0442 13.6419 43.9789 13.5859C43.9229 13.5206 43.8949 13.4413 43.8949 13.3479V6.71192C43.8949 6.61859 43.9229 6.54392 43.9789 6.48792C44.0442 6.42259 44.1236 6.38992 44.2169 6.38992H44.8749C44.9682 6.38992 45.0429 6.42259 45.0989 6.48792C45.1642 6.54392 45.1969 6.61859 45.1969 6.71192V7.32792C45.4396 7.01059 45.7429 6.75392 46.1069 6.55792C46.4802 6.35259 46.9562 6.24992 47.5349 6.24992C48.1416 6.24992 48.6549 6.38525 49.0749 6.65592C49.5042 6.91725 49.8262 7.28592 50.0409 7.76192C50.2556 8.22859 50.3629 8.77459 50.3629 9.39992V13.3479C50.3629 13.4413 50.3349 13.5206 50.2789 13.5859C50.2229 13.6419 50.1482 13.6699 50.0549 13.6699H49.3549C49.2616 13.6699 49.1822 13.6419 49.1169 13.5859C49.0609 13.5206 49.0329 13.4413 49.0329 13.3479V9.46992C49.0329 8.81659 48.8742 8.30792 48.5569 7.94392C48.2396 7.57059 47.7729 7.38392 47.1569 7.38392C46.5782 7.38392 46.1116 7.57059 45.7569 7.94392C45.4116 8.30792 45.2389 8.81659 45.2389 9.46992V13.3479C45.2389 13.4413 45.2062 13.5206 45.1409 13.5859C45.0849 13.6419 45.0102 13.6699 44.9169 13.6699H44.2169ZM54.9774 13.6699C54.4548 13.6699 54.0301 13.5719 53.7034 13.3759C53.3768 13.1706 53.1388 12.8859 52.9894 12.5219C52.8401 12.1486 52.7654 11.7099 52.7654 11.2059V7.50992H51.6734C51.5801 7.50992 51.5008 7.48192 51.4354 7.42592C51.3794 7.36059 51.3514 7.28125 51.3514 7.18792V6.71192C51.3514 6.61859 51.3794 6.54392 51.4354 6.48792C51.5008 6.42259 51.5801 6.38992 51.6734 6.38992H52.7654V4.05192C52.7654 3.95859 52.7934 3.88392 52.8494 3.82792C52.9148 3.76259 52.9941 3.72992 53.0874 3.72992H53.7454C53.8388 3.72992 53.9134 3.76259 53.9694 3.82792C54.0348 3.88392 54.0674 3.95859 54.0674 4.05192V6.38992H55.8034C55.8968 6.38992 55.9714 6.42259 56.0274 6.48792C56.0928 6.54392 56.1254 6.61859 56.1254 6.71192V7.18792C56.1254 7.28125 56.0928 7.36059 56.0274 7.42592C55.9714 7.48192 55.8968 7.50992 55.8034 7.50992H54.0674V11.1079C54.0674 11.5466 54.1421 11.8919 54.2914 12.1439C54.4408 12.3959 54.7068 12.5219 55.0894 12.5219H55.9434C56.0368 12.5219 56.1114 12.5546 56.1674 12.6199C56.2328 12.6759 56.2654 12.7506 56.2654 12.8439V13.3479C56.2654 13.4413 56.2328 13.5206 56.1674 13.5859C56.1114 13.6419 56.0368 13.6699 55.9434 13.6699H54.9774ZM61.2318 13.6699C61.1292 13.6699 61.0498 13.6419 60.9938 13.5859C60.9378 13.5206 60.9098 13.4413 60.9098 13.3479V4.20592C60.9098 4.10325 60.9378 4.02392 60.9938 3.96792C61.0498 3.90259 61.1292 3.86992 61.2318 3.86992H61.9318C62.0345 3.86992 62.1138 3.90259 62.1698 3.96792C62.2352 4.02392 62.2678 4.10325 62.2678 4.20592V7.67792L66.0058 4.09392C66.0432 4.05659 66.1038 4.00992 66.1878 3.95392C66.2812 3.89792 66.4025 3.86992 66.5518 3.86992H67.3078C67.3825 3.86992 67.4478 3.89792 67.5038 3.95392C67.5598 4.00992 67.5878 4.07525 67.5878 4.14992C67.5878 4.22459 67.5692 4.28525 67.5318 4.33192L63.2058 8.55992L67.8118 13.1939C67.8585 13.2499 67.8818 13.3153 67.8818 13.3899C67.8818 13.4646 67.8538 13.5299 67.7978 13.5859C67.7418 13.6419 67.6765 13.6699 67.6018 13.6699H66.8178C66.6592 13.6699 66.5378 13.6419 66.4538 13.5859C66.3698 13.5206 66.3092 13.4739 66.2718 13.4459L62.2678 9.49792V13.3479C62.2678 13.4413 62.2352 13.5206 62.1698 13.5859C62.1138 13.6419 62.0345 13.6699 61.9318 13.6699H61.2318ZM69.304 13.6699C69.2107 13.6699 69.1314 13.6419 69.066 13.5859C69.01 13.5206 68.982 13.4413 68.982 13.3479V6.71192C68.982 6.61859 69.01 6.54392 69.066 6.48792C69.1314 6.42259 69.2107 6.38992 69.304 6.38992H69.962C70.0554 6.38992 70.13 6.42259 70.186 6.48792C70.2514 6.54392 70.284 6.61859 70.284 6.71192V7.32792C70.5267 7.01059 70.83 6.75392 71.194 6.55792C71.5674 6.35259 72.0434 6.24992 72.622 6.24992C73.2287 6.24992 73.742 6.38525 74.162 6.65592C74.5914 6.91725 74.9134 7.28592 75.128 7.76192C75.3427 8.22859 75.45 8.77459 75.45 9.39992V13.3479C75.45 13.4413 75.422 13.5206 75.366 13.5859C75.31 13.6419 75.2354 13.6699 75.142 13.6699H74.442C74.3487 13.6699 74.2694 13.6419 74.204 13.5859C74.148 13.5206 74.12 13.4413 74.12 13.3479V9.46992C74.12 8.81659 73.9614 8.30792 73.644 7.94392C73.3267 7.57059 72.86 7.38392 72.244 7.38392C71.6654 7.38392 71.1987 7.57059 70.844 7.94392C70.4987 8.30792 70.326 8.81659 70.326 9.46992V13.3479C70.326 13.4413 70.2934 13.5206 70.228 13.5859C70.172 13.6419 70.0974 13.6699 70.004 13.6699H69.304ZM80.3003 13.8099C79.5909 13.8099 78.9983 13.6746 78.5223 13.4039C78.0463 13.1333 77.6823 12.7599 77.4303 12.2839C77.1783 11.7986 77.0383 11.2479 77.0103 10.6319C77.0009 10.4733 76.9963 10.2726 76.9963 10.0299C76.9963 9.77792 77.0009 9.57726 77.0103 9.42792C77.0383 8.80259 77.1783 8.25192 77.4303 7.77592C77.6916 7.29992 78.0603 6.92659 78.5363 6.65592C79.0123 6.38525 79.6003 6.24992 80.3003 6.24992C81.0003 6.24992 81.5883 6.38525 82.0643 6.65592C82.5403 6.92659 82.9043 7.29992 83.1563 7.77592C83.4176 8.25192 83.5623 8.80259 83.5903 9.42792C83.5996 9.57726 83.6043 9.77792 83.6043 10.0299C83.6043 10.2726 83.5996 10.4733 83.5903 10.6319C83.5623 11.2479 83.4223 11.7986 83.1703 12.2839C82.9183 12.7599 82.5543 13.1333 82.0783 13.4039C81.6023 13.6746 81.0096 13.8099 80.3003 13.8099ZM80.3003 12.7319C80.8789 12.7319 81.3409 12.5499 81.6863 12.1859C82.0316 11.8126 82.2183 11.2713 82.2463 10.5619C82.2556 10.4219 82.2603 10.2446 82.2603 10.0299C82.2603 9.81525 82.2556 9.63792 82.2463 9.49792C82.2183 8.78859 82.0316 8.25192 81.6863 7.88792C81.3409 7.51459 80.8789 7.32792 80.3003 7.32792C79.7216 7.32792 79.2549 7.51459 78.9003 7.88792C78.5549 8.25192 78.3729 8.78859 78.3543 9.49792C78.3449 9.63792 78.3403 9.81525 78.3403 10.0299C78.3403 10.2446 78.3449 10.4219 78.3543 10.5619C78.3729 11.2713 78.5549 11.8126 78.9003 12.1859C79.2549 12.5499 79.7216 12.7319 80.3003 12.7319ZM86.9439 13.6699C86.8226 13.6699 86.7293 13.6419 86.6639 13.5859C86.5986 13.5206 86.5426 13.4319 86.4959 13.3199L84.5079 6.82392C84.4893 6.77725 84.4799 6.73059 84.4799 6.68392C84.4799 6.59992 84.5079 6.52992 84.5639 6.47392C84.6293 6.41792 84.6993 6.38992 84.7739 6.38992H85.3899C85.4926 6.38992 85.5719 6.41792 85.6279 6.47392C85.6839 6.52992 85.7213 6.58125 85.7399 6.62792L87.2939 11.9059L88.9599 6.68392C88.9786 6.61859 89.0159 6.55325 89.0719 6.48792C89.1373 6.42259 89.2306 6.38992 89.3519 6.38992H89.8279C89.9493 6.38992 90.0426 6.42259 90.1079 6.48792C90.1733 6.55325 90.2106 6.61859 90.2199 6.68392L91.8859 11.9059L93.4399 6.62792C93.4493 6.58125 93.4819 6.52992 93.5379 6.47392C93.5939 6.41792 93.6733 6.38992 93.7759 6.38992H94.3919C94.4759 6.38992 94.5459 6.41792 94.6019 6.47392C94.6579 6.52992 94.6859 6.59992 94.6859 6.68392C94.6859 6.73059 94.6766 6.77725 94.6579 6.82392L92.6699 13.3199C92.6419 13.4319 92.5906 13.5206 92.5159 13.5859C92.4506 13.6419 92.3526 13.6699 92.2219 13.6699H91.6759C91.5546 13.6699 91.4519 13.6419 91.3679 13.5859C91.2933 13.5206 91.2419 13.4319 91.2139 13.3199L89.5899 8.30792L87.9659 13.3199C87.9286 13.4319 87.8726 13.5206 87.7979 13.5859C87.7233 13.6419 87.6206 13.6699 87.4899 13.6699H86.9439ZM96.4185 13.6699C96.3252 13.6699 96.2459 13.6419 96.1805 13.5859C96.1245 13.5206 96.0965 13.4413 96.0965 13.3479V4.05192C96.0965 3.95859 96.1245 3.88392 96.1805 3.82792C96.2459 3.76259 96.3252 3.72992 96.4185 3.72992H97.0765C97.1792 3.72992 97.2585 3.76259 97.3145 3.82792C97.3705 3.88392 97.3985 3.95859 97.3985 4.05192V13.3479C97.3985 13.4413 97.3705 13.5206 97.3145 13.5859C97.2585 13.6419 97.1792 13.6699 97.0765 13.6699H96.4185ZM102.231 13.8099C101.269 13.8099 100.504 13.5159 99.9348 12.9279C99.3655 12.3306 99.0528 11.5186 98.9968 10.4919C98.9875 10.3706 98.9828 10.2166 98.9828 10.0299C98.9828 9.83392 98.9875 9.67526 98.9968 9.55392C99.0342 8.89126 99.1882 8.31259 99.4588 7.81792C99.7295 7.31392 100.098 6.92659 100.565 6.65592C101.041 6.38525 101.596 6.24992 102.231 6.24992C102.94 6.24992 103.533 6.39925 104.009 6.69792C104.494 6.99659 104.863 7.42125 105.115 7.97192C105.367 8.52259 105.493 9.16659 105.493 9.90392V10.1419C105.493 10.2446 105.46 10.3239 105.395 10.3799C105.339 10.4359 105.264 10.4639 105.171 10.4639H100.327C100.327 10.4733 100.327 10.4919 100.327 10.5199C100.327 10.5479 100.327 10.5713 100.327 10.5899C100.345 10.9726 100.429 11.3319 100.579 11.6679C100.728 11.9946 100.943 12.2606 101.223 12.4659C101.503 12.6713 101.839 12.7739 102.231 12.7739C102.567 12.7739 102.847 12.7226 103.071 12.6199C103.295 12.5173 103.477 12.4053 103.617 12.2839C103.757 12.1533 103.85 12.0553 103.897 11.9899C103.981 11.8686 104.046 11.7986 104.093 11.7799C104.139 11.7519 104.214 11.7379 104.317 11.7379H104.989C105.082 11.7379 105.157 11.7659 105.213 11.8219C105.278 11.8686 105.306 11.9386 105.297 12.0319C105.287 12.1719 105.213 12.3446 105.073 12.5499C104.933 12.7459 104.732 12.9419 104.471 13.1379C104.209 13.3339 103.892 13.4973 103.519 13.6279C103.145 13.7493 102.716 13.8099 102.231 13.8099ZM100.327 9.49792H104.163V9.45592C104.163 9.03592 104.083 8.66259 103.925 8.33592C103.775 8.00926 103.556 7.75259 103.267 7.56592C102.977 7.36992 102.632 7.27192 102.231 7.27192C101.829 7.27192 101.484 7.36992 101.195 7.56592C100.915 7.75259 100.7 8.00926 100.551 8.33592C100.401 8.66259 100.327 9.03592 100.327 9.45592V9.49792ZM109.673 13.8099C109.159 13.8099 108.716 13.7213 108.343 13.5439C107.969 13.3573 107.661 13.1099 107.419 12.8019C107.185 12.4846 107.008 12.1253 106.887 11.7239C106.775 11.3226 106.709 10.8979 106.691 10.4499C106.681 10.3006 106.677 10.1606 106.677 10.0299C106.677 9.89925 106.681 9.75925 106.691 9.60992C106.709 9.17125 106.775 8.75125 106.887 8.34992C107.008 7.94859 107.185 7.58926 107.419 7.27192C107.661 6.95459 107.969 6.70725 108.343 6.52992C108.716 6.34325 109.159 6.24992 109.673 6.24992C110.223 6.24992 110.681 6.34792 111.045 6.54392C111.409 6.73992 111.707 6.98259 111.941 7.27192V4.05192C111.941 3.95859 111.969 3.88392 112.025 3.82792C112.09 3.76259 112.169 3.72992 112.263 3.72992H112.935C113.028 3.72992 113.103 3.76259 113.159 3.82792C113.224 3.88392 113.257 3.95859 113.257 4.05192V13.3479C113.257 13.4413 113.224 13.5206 113.159 13.5859C113.103 13.6419 113.028 13.6699 112.935 13.6699H112.305C112.202 13.6699 112.123 13.6419 112.067 13.5859C112.011 13.5206 111.983 13.4413 111.983 13.3479V12.7599C111.749 13.0586 111.446 13.3106 111.073 13.5159C110.699 13.7119 110.233 13.8099 109.673 13.8099ZM109.967 12.6759C110.433 12.6759 110.807 12.5686 111.087 12.3539C111.367 12.1393 111.577 11.8686 111.717 11.5419C111.857 11.2059 111.931 10.8653 111.941 10.5199C111.95 10.3706 111.955 10.1933 111.955 9.98792C111.955 9.77326 111.95 9.59126 111.941 9.44192C111.931 9.11526 111.852 8.79325 111.703 8.47592C111.563 8.15859 111.348 7.89725 111.059 7.69192C110.779 7.48659 110.415 7.38392 109.967 7.38392C109.491 7.38392 109.113 7.49125 108.833 7.70592C108.553 7.91125 108.352 8.18659 108.231 8.53192C108.109 8.86792 108.039 9.23192 108.021 9.62392C108.011 9.89459 108.011 10.1653 108.021 10.4359C108.039 10.8279 108.109 11.1966 108.231 11.5419C108.352 11.8779 108.553 12.1533 108.833 12.3679C109.113 12.5733 109.491 12.6759 109.967 12.6759ZM118.167 16.7499C117.532 16.7499 117.01 16.6659 116.599 16.4979C116.198 16.3299 115.88 16.1246 115.647 15.8819C115.423 15.6486 115.26 15.4106 115.157 15.1679C115.064 14.9346 115.012 14.7479 115.003 14.6079C114.994 14.5146 115.022 14.4353 115.087 14.3699C115.162 14.3046 115.241 14.2719 115.325 14.2719H115.997C116.081 14.2719 116.151 14.2906 116.207 14.3279C116.263 14.3653 116.31 14.4446 116.347 14.5659C116.403 14.7059 116.487 14.8599 116.599 15.0279C116.711 15.2053 116.884 15.3546 117.117 15.4759C117.35 15.6066 117.677 15.6719 118.097 15.6719C118.536 15.6719 118.904 15.6113 119.203 15.4899C119.502 15.3779 119.726 15.1726 119.875 14.8739C120.034 14.5846 120.113 14.1833 120.113 13.6699V12.7179C119.889 13.0073 119.595 13.2499 119.231 13.4459C118.867 13.6326 118.41 13.7259 117.859 13.7259C117.336 13.7259 116.888 13.6373 116.515 13.4599C116.142 13.2733 115.834 13.0259 115.591 12.7179C115.358 12.4006 115.18 12.0413 115.059 11.6399C114.947 11.2386 114.882 10.8186 114.863 10.3799C114.854 10.1186 114.854 9.86192 114.863 9.60992C114.882 9.17125 114.947 8.75125 115.059 8.34992C115.18 7.94859 115.358 7.58926 115.591 7.27192C115.834 6.95459 116.142 6.70725 116.515 6.52992C116.888 6.34325 117.336 6.24992 117.859 6.24992C118.419 6.24992 118.881 6.35725 119.245 6.57192C119.618 6.77725 119.922 7.02926 120.155 7.32792V6.72592C120.155 6.63259 120.183 6.55325 120.239 6.48792C120.304 6.42259 120.384 6.38992 120.477 6.38992H121.121C121.214 6.38992 121.294 6.42259 121.359 6.48792C121.424 6.55325 121.457 6.63259 121.457 6.72592V13.5159C121.457 14.1413 121.35 14.6966 121.135 15.1819C120.93 15.6673 120.584 16.0499 120.099 16.3299C119.623 16.6099 118.979 16.7499 118.167 16.7499ZM118.139 12.6059C118.606 12.6059 118.979 12.4986 119.259 12.2839C119.548 12.0693 119.758 11.7986 119.889 11.4719C120.029 11.1453 120.104 10.8139 120.113 10.4779C120.122 10.3473 120.127 10.1886 120.127 10.0019C120.127 9.80592 120.122 9.64259 120.113 9.51192C120.104 9.17592 120.029 8.84459 119.889 8.51792C119.758 8.19125 119.548 7.92059 119.259 7.70592C118.979 7.49125 118.606 7.38392 118.139 7.38392C117.672 7.38392 117.299 7.49125 117.019 7.70592C116.739 7.91125 116.538 8.18659 116.417 8.53192C116.296 8.86792 116.226 9.23192 116.207 9.62392C116.198 9.86659 116.198 10.1139 116.207 10.3659C116.226 10.7579 116.296 11.1266 116.417 11.4719C116.538 11.8079 116.739 12.0833 117.019 12.2979C117.299 12.5033 117.672 12.6059 118.139 12.6059ZM126.283 13.8099C125.321 13.8099 124.556 13.5159 123.987 12.9279C123.417 12.3306 123.105 11.5186 123.049 10.4919C123.039 10.3706 123.035 10.2166 123.035 10.0299C123.035 9.83392 123.039 9.67526 123.049 9.55392C123.086 8.89126 123.24 8.31259 123.511 7.81792C123.781 7.31392 124.15 6.92659 124.617 6.65592C125.093 6.38525 125.648 6.24992 126.283 6.24992C126.992 6.24992 127.585 6.39925 128.061 6.69792C128.546 6.99659 128.915 7.42125 129.167 7.97192C129.419 8.52259 129.545 9.16659 129.545 9.90392V10.1419C129.545 10.2446 129.512 10.3239 129.447 10.3799C129.391 10.4359 129.316 10.4639 129.223 10.4639H124.379C124.379 10.4733 124.379 10.4919 124.379 10.5199C124.379 10.5479 124.379 10.5713 124.379 10.5899C124.397 10.9726 124.481 11.3319 124.631 11.6679C124.78 11.9946 124.995 12.2606 125.275 12.4659C125.555 12.6713 125.891 12.7739 126.283 12.7739C126.619 12.7739 126.899 12.7226 127.123 12.6199C127.347 12.5173 127.529 12.4053 127.669 12.2839C127.809 12.1533 127.902 12.0553 127.949 11.9899C128.033 11.8686 128.098 11.7986 128.145 11.7799C128.191 11.7519 128.266 11.7379 128.369 11.7379H129.041C129.134 11.7379 129.209 11.7659 129.265 11.8219C129.33 11.8686 129.358 11.9386 129.349 12.0319C129.339 12.1719 129.265 12.3446 129.125 12.5499C128.985 12.7459 128.784 12.9419 128.523 13.1379C128.261 13.3339 127.944 13.4973 127.571 13.6279C127.197 13.7493 126.768 13.8099 126.283 13.8099ZM124.379 9.49792H128.215V9.45592C128.215 9.03592 128.135 8.66259 127.977 8.33592C127.827 8.00926 127.608 7.75259 127.319 7.56592C127.029 7.36992 126.684 7.27192 126.283 7.27192C125.881 7.27192 125.536 7.36992 125.247 7.56592C124.967 7.75259 124.752 8.00926 124.603 8.33592C124.453 8.66259 124.379 9.03592 124.379 9.45592V9.49792Z" fill="black" fill-opacity="0.7"/>
<path opacity="0.1" fill-rule="evenodd" clip-rule="evenodd" d="M7.33691 102.776C7.33691 102.776 12.7492 101.983 18.9026 103.888C30.6061 107.511 31.2738 100.876 35.6135 97.6766C39.5839 94.7495 42.8722 96.5354 47.2929 100.115C50.5535 102.755 55.3052 107.187 60.2262 106.473C64.7245 105.821 67.9134 100.623 74.1485 99.3016C79.0902 98.2539 83.1062 101.132 88.7966 100.115C96.5161 98.7353 99.9642 90.6123 105.481 90.6123C112.291 90.6123 117.085 83.7422 123.28 83.7422C129.438 83.7422 130.273 87.782 137.01 90.6123C142.16 92.7761 144.637 90.6123 144.637 90.6123V113.799H7.33691V102.776Z" fill="url(#paint0_linear_642_870)"/>
<path d="M7.33691 99.1749C7.33691 99.1749 12.7492 98.3933 18.9026 100.271C30.6061 103.842 31.2738 97.3026 35.6135 94.1495C39.5839 91.2647 42.8722 93.0248 47.293 96.5526C50.5535 99.1545 55.3052 103.522 60.2262 102.819C64.7245 102.176 67.9134 97.0537 74.1485 95.7509C79.0902 94.7184 83.1062 97.555 88.7966 96.5526C96.5161 95.1928 99.9642 87.1874 105.481 87.1874C112.291 87.1874 117.085 80.4004 123.28 80.4004C129.438 80.4004 129.765 84.3981 136.501 87.1874C141.651 89.3199 144.637 87.1874 144.637 87.1874" stroke="#6105A2" stroke-width="2" stroke-linecap="round" stroke-linejoin="round"/>
<path opacity="0.1" fill-rule="evenodd" clip-rule="evenodd" d="M8 103.034C8 103.034 13.4123 102.241 19.5657 104.146C31.2692 107.769 31.9368 101.134 36.2766 97.9344C40.247 95.0073 43.5353 96.7933 47.956 100.373C51.2165 103.013 55.9683 107.445 60.8893 106.731C65.3876 106.079 68.5765 100.881 74.8116 99.5594C79.7533 98.5117 83.7692 101.39 89.4596 100.373C97.1792 98.9931 100.627 90.8701 106.144 90.8701C112.954 90.8701 117.748 84 123.943 84C130.101 84 130.937 88.0398 137.673 90.8701C142.823 93.0339 145.301 90.8701 145.301 90.8701V114.057H8V103.034Z" fill="url(#paint1_linear_642_870)"/>
<defs>
<linearGradient id="paint0_linear_642_870" x1="31" y1="99" x2="32.1507" y2="113.799" gradientUnits="userSpaceOnUse">
<stop stop-color="#DFCDEC"/>
<stop offset="1" stop-color="#A15BAF" stop-opacity="0.01"/>
</linearGradient>
<linearGradient id="paint1_linear_642_870" x1="32.8138" y1="99.251" x2="32.8138" y2="114.057" gradientUnits="userSpaceOnUse">
<stop stop-color="#6105A2"/>
<stop offset="1" stop-color="white" stop-opacity="0.01"/>
</linearGradient>
</defs>
</svg>
