<svg width="142" height="115" viewBox="0 0 142 115" fill="none" xmlns="http://www.w3.org/2000/svg">
<path d="M49.689 45.5059C49.0926 44.817 48.0473 44.7391 47.389 45.3692C42.7698 49.7905 39.5255 55.4685 38.0689 61.7188C36.4873 68.5059 37.0949 75.6195 39.8047 82.04C42.5145 88.4605 47.1873 93.8583 53.1534 97.4598C59.1196 101.061 66.0727 102.682 73.0164 102.089C79.96 101.495 86.5376 98.7194 91.8065 94.1582C97.0754 89.597 100.765 83.4848 102.347 76.6978C103.928 69.9107 103.321 62.7972 100.611 56.3766C98.1154 50.4639 93.9551 45.4184 88.653 41.8445C87.8973 41.3352 86.8804 41.5892 86.4094 42.3694C85.9385 43.1495 86.1922 44.16 86.945 44.6735C91.6518 47.8843 95.3461 52.3892 97.5706 57.6598C100.009 63.4383 100.556 69.8405 99.1328 75.9488C97.7093 82.0572 94.3886 87.5581 89.6466 91.6632C84.9046 95.7683 78.9848 98.2668 72.7355 98.8006C66.4862 99.3343 60.2284 97.8761 54.8589 94.6347C49.4894 91.3933 45.2838 86.5353 42.845 80.7568C40.4062 74.9784 39.8594 68.5762 41.2828 62.4678C42.5812 56.8962 45.458 51.83 49.552 47.8675C50.2068 47.2337 50.2855 46.1949 49.689 45.5059Z" fill="#E9EDF0"/>
<path d="M11.1011 13.14C10.2798 13.14 9.57982 12.986 9.00115 12.678C8.43182 12.37 7.99315 11.936 7.68515 11.376C7.38648 10.816 7.21848 10.158 7.18115 9.402C7.17182 8.99133 7.16715 8.55733 7.16715 8.1C7.16715 7.63333 7.17182 7.19 7.18115 6.77C7.21848 6.014 7.38648 5.36067 7.68515 4.81C7.99315 4.25933 8.43648 3.83 9.01515 3.522C9.59382 3.214 10.2891 3.06 11.1011 3.06C11.7638 3.06 12.3378 3.15333 12.8231 3.34C13.3085 3.52667 13.7051 3.76467 14.0131 4.054C14.3305 4.334 14.5638 4.628 14.7131 4.936C14.8718 5.244 14.9558 5.51467 14.9651 5.748C14.9745 5.832 14.9511 5.902 14.8951 5.958C14.8391 6.00467 14.7645 6.028 14.6711 6.028H13.8451C13.7518 6.028 13.6818 6.00933 13.6351 5.972C13.5978 5.93467 13.5605 5.86933 13.5231 5.776C13.4391 5.53333 13.2991 5.29533 13.1031 5.062C12.9165 4.82867 12.6598 4.63733 12.3331 4.488C12.0158 4.32933 11.6051 4.25 11.1011 4.25C10.3638 4.25 9.76648 4.45067 9.30915 4.852C8.86115 5.25333 8.61848 5.916 8.58115 6.84C8.55315 7.67067 8.55315 8.50133 8.58115 9.332C8.61848 10.2653 8.86582 10.9373 9.32315 11.348C9.78048 11.7493 10.3778 11.95 11.1151 11.95C11.6098 11.95 12.0485 11.8613 12.4311 11.684C12.8231 11.4973 13.1311 11.2127 13.3551 10.83C13.5791 10.4473 13.6911 9.962 13.6911 9.374V8.786H11.5911C11.4978 8.786 11.4185 8.758 11.3531 8.702C11.2971 8.63667 11.2691 8.55267 11.2691 8.45V8.002C11.2691 7.89933 11.2971 7.82 11.3531 7.764C11.4185 7.69867 11.4978 7.666 11.5911 7.666H14.7551C14.8578 7.666 14.9371 7.69867 14.9931 7.764C15.0491 7.82 15.0771 7.89933 15.0771 8.002V9.346C15.0771 10.1113 14.9185 10.7787 14.6011 11.348C14.2931 11.9173 13.8405 12.3607 13.2431 12.678C12.6458 12.986 11.9318 13.14 11.1011 13.14ZM19.7204 13.14C19.0111 13.14 18.4184 13.0047 17.9424 12.734C17.4664 12.4633 17.1024 12.09 16.8504 11.614C16.5984 11.1287 16.4584 10.578 16.4304 9.962C16.4211 9.80333 16.4164 9.60267 16.4164 9.36C16.4164 9.108 16.4211 8.90733 16.4304 8.758C16.4584 8.13267 16.5984 7.582 16.8504 7.106C17.1118 6.63 17.4804 6.25667 17.9564 5.986C18.4324 5.71533 19.0204 5.58 19.7204 5.58C20.4204 5.58 21.0084 5.71533 21.4844 5.986C21.9604 6.25667 22.3244 6.63 22.5764 7.106C22.8378 7.582 22.9824 8.13267 23.0104 8.758C23.0198 8.90733 23.0244 9.108 23.0244 9.36C23.0244 9.60267 23.0198 9.80333 23.0104 9.962C22.9824 10.578 22.8424 11.1287 22.5904 11.614C22.3384 12.09 21.9744 12.4633 21.4984 12.734C21.0224 13.0047 20.4298 13.14 19.7204 13.14ZM19.7204 12.062C20.2991 12.062 20.7611 11.88 21.1064 11.516C21.4518 11.1427 21.6384 10.6013 21.6664 9.892C21.6758 9.752 21.6804 9.57467 21.6804 9.36C21.6804 9.14533 21.6758 8.968 21.6664 8.828C21.6384 8.11867 21.4518 7.582 21.1064 7.218C20.7611 6.84467 20.2991 6.658 19.7204 6.658C19.1418 6.658 18.6751 6.84467 18.3204 7.218C17.9751 7.582 17.7931 8.11867 17.7744 8.828C17.7651 8.968 17.7604 9.14533 17.7604 9.36C17.7604 9.57467 17.7651 9.752 17.7744 9.892C17.7931 10.6013 17.9751 11.1427 18.3204 11.516C18.6751 11.88 19.1418 12.062 19.7204 12.062ZM26.6535 13.14C26.1868 13.14 25.7622 13.0467 25.3795 12.86C24.9968 12.6733 24.6888 12.4213 24.4555 12.104C24.2222 11.7867 24.1055 11.4273 24.1055 11.026C24.1055 10.382 24.3668 9.86867 24.8895 9.486C25.4122 9.10333 26.0935 8.85133 26.9335 8.73L29.0195 8.436V8.03C29.0195 7.582 28.8888 7.232 28.6275 6.98C28.3755 6.728 27.9602 6.602 27.3815 6.602C26.9615 6.602 26.6208 6.686 26.3595 6.854C26.1075 7.022 25.9302 7.23667 25.8275 7.498C25.7715 7.638 25.6735 7.708 25.5335 7.708H24.9035C24.8008 7.708 24.7215 7.68 24.6655 7.624C24.6188 7.55867 24.5955 7.484 24.5955 7.4C24.5955 7.26 24.6468 7.08733 24.7495 6.882C24.8615 6.67667 25.0295 6.476 25.2535 6.28C25.4775 6.084 25.7622 5.92067 26.1075 5.79C26.4622 5.65 26.8915 5.58 27.3955 5.58C27.9555 5.58 28.4268 5.65467 28.8095 5.804C29.1922 5.944 29.4908 6.13533 29.7055 6.378C29.9295 6.62067 30.0882 6.896 30.1815 7.204C30.2842 7.512 30.3355 7.82467 30.3355 8.142V12.678C30.3355 12.7713 30.3028 12.8507 30.2375 12.916C30.1815 12.972 30.1068 13 30.0135 13H29.3695C29.2668 13 29.1875 12.972 29.1315 12.916C29.0755 12.8507 29.0475 12.7713 29.0475 12.678V12.076C28.9262 12.244 28.7628 12.412 28.5575 12.58C28.3522 12.7387 28.0955 12.874 27.7875 12.986C27.4795 13.0887 27.1015 13.14 26.6535 13.14ZM26.9475 12.09C27.3302 12.09 27.6802 12.0107 27.9975 11.852C28.3148 11.684 28.5622 11.4273 28.7395 11.082C28.9262 10.7367 29.0195 10.3027 29.0195 9.78V9.388L27.3955 9.626C26.7328 9.71933 26.2335 9.878 25.8975 10.102C25.5615 10.3167 25.3935 10.592 25.3935 10.928C25.3935 11.1893 25.4682 11.4087 25.6175 11.586C25.7762 11.754 25.9722 11.88 26.2055 11.964C26.4482 12.048 26.6955 12.09 26.9475 12.09ZM32.5301 13C32.4368 13 32.3575 12.972 32.2921 12.916C32.2361 12.8507 32.2081 12.7713 32.2081 12.678V3.382C32.2081 3.28867 32.2361 3.214 32.2921 3.158C32.3575 3.09267 32.4368 3.06 32.5301 3.06H33.1881C33.2908 3.06 33.3701 3.09267 33.4261 3.158C33.4821 3.214 33.5101 3.28867 33.5101 3.382V12.678C33.5101 12.7713 33.4821 12.8507 33.4261 12.916C33.3701 12.972 33.2908 13 33.1881 13H32.5301ZM42.4321 13.14C41.5734 13.14 40.8594 12.9813 40.2901 12.664C39.7301 12.3467 39.3054 11.9033 39.0161 11.334C38.7267 10.7647 38.5681 10.102 38.5401 9.346C38.5307 8.96333 38.5261 8.55267 38.5261 8.114C38.5261 7.67533 38.5307 7.25533 38.5401 6.854C38.5681 6.098 38.7267 5.43533 39.0161 4.866C39.3054 4.29667 39.7301 3.85333 40.2901 3.536C40.8594 3.21867 41.5734 3.06 42.4321 3.06C43.0761 3.06 43.6407 3.14867 44.1261 3.326C44.6114 3.50333 45.0127 3.74133 45.3301 4.04C45.6567 4.33867 45.9041 4.67467 46.0721 5.048C46.2401 5.412 46.3334 5.79 46.3521 6.182C46.3614 6.266 46.3334 6.336 46.2681 6.392C46.2121 6.448 46.1421 6.476 46.0581 6.476H45.2881C45.2041 6.476 45.1294 6.45267 45.0641 6.406C45.0081 6.35933 44.9661 6.27533 44.9381 6.154C44.7794 5.426 44.4807 4.92667 44.0421 4.656C43.6127 4.38533 43.0714 4.25 42.4181 4.25C41.6714 4.25 41.0787 4.46467 40.6401 4.894C40.2014 5.314 39.9634 5.99067 39.9261 6.924C39.8981 7.68933 39.8981 8.47333 39.9261 9.276C39.9634 10.2093 40.2014 10.8907 40.6401 11.32C41.0787 11.74 41.6714 11.95 42.4181 11.95C43.0714 11.95 43.6127 11.8147 44.0421 11.544C44.4807 11.2733 44.7794 10.774 44.9381 10.046C44.9661 9.92467 45.0081 9.84067 45.0641 9.794C45.1294 9.74733 45.2041 9.724 45.2881 9.724H46.0581C46.1421 9.724 46.2121 9.752 46.2681 9.808C46.3334 9.864 46.3614 9.934 46.3521 10.018C46.3334 10.41 46.2401 10.7927 46.0721 11.166C45.9041 11.53 45.6567 11.8613 45.3301 12.16C45.0127 12.4587 44.6114 12.6967 44.1261 12.874C43.6407 13.0513 43.0761 13.14 42.4321 13.14ZM50.8743 13.14C50.1649 13.14 49.5723 13.0047 49.0963 12.734C48.6203 12.4633 48.2563 12.09 48.0043 11.614C47.7523 11.1287 47.6123 10.578 47.5843 9.962C47.5749 9.80333 47.5703 9.60267 47.5703 9.36C47.5703 9.108 47.5749 8.90733 47.5843 8.758C47.6123 8.13267 47.7523 7.582 48.0043 7.106C48.2656 6.63 48.6343 6.25667 49.1103 5.986C49.5863 5.71533 50.1743 5.58 50.8743 5.58C51.5743 5.58 52.1623 5.71533 52.6383 5.986C53.1143 6.25667 53.4783 6.63 53.7303 7.106C53.9916 7.582 54.1363 8.13267 54.1643 8.758C54.1736 8.90733 54.1783 9.108 54.1783 9.36C54.1783 9.60267 54.1736 9.80333 54.1643 9.962C54.1363 10.578 53.9963 11.1287 53.7443 11.614C53.4923 12.09 53.1283 12.4633 52.6523 12.734C52.1763 13.0047 51.5836 13.14 50.8743 13.14ZM50.8743 12.062C51.4529 12.062 51.9149 11.88 52.2603 11.516C52.6056 11.1427 52.7923 10.6013 52.8203 9.892C52.8296 9.752 52.8343 9.57467 52.8343 9.36C52.8343 9.14533 52.8296 8.968 52.8203 8.828C52.7923 8.11867 52.6056 7.582 52.2603 7.218C51.9149 6.84467 51.4529 6.658 50.8743 6.658C50.2956 6.658 49.8289 6.84467 49.4743 7.218C49.1289 7.582 48.9469 8.11867 48.9283 8.828C48.9189 8.968 48.9143 9.14533 48.9143 9.36C48.9143 9.57467 48.9189 9.752 48.9283 9.892C48.9469 10.6013 49.1289 11.1427 49.4743 11.516C49.8289 11.88 50.2956 12.062 50.8743 12.062ZM56.0993 13C56.006 13 55.9267 12.972 55.8613 12.916C55.8053 12.8507 55.7773 12.7713 55.7773 12.678V6.042C55.7773 5.94867 55.8053 5.874 55.8613 5.818C55.9267 5.75267 56.006 5.72 56.0993 5.72H56.7293C56.8227 5.72 56.8973 5.75267 56.9533 5.818C57.0187 5.874 57.0513 5.94867 57.0513 6.042V6.532C57.266 6.24267 57.5367 6.014 57.8633 5.846C58.19 5.66867 58.582 5.58 59.0393 5.58C60.094 5.57067 60.8407 6 61.2793 6.868C61.494 6.476 61.8067 6.16333 62.2173 5.93C62.628 5.69667 63.0947 5.58 63.6173 5.58C64.1027 5.58 64.5413 5.692 64.9333 5.916C65.3347 6.14 65.6473 6.48067 65.8713 6.938C66.1047 7.386 66.2213 7.95067 66.2213 8.632V12.678C66.2213 12.7713 66.1887 12.8507 66.1233 12.916C66.0673 12.972 65.9927 13 65.8993 13H65.2413C65.148 13 65.0687 12.972 65.0033 12.916C64.9473 12.8507 64.9193 12.7713 64.9193 12.678V8.758C64.9193 8.23533 64.8447 7.82467 64.6953 7.526C64.546 7.22733 64.3453 7.01733 64.0933 6.896C63.8413 6.77467 63.566 6.714 63.2673 6.714C63.0247 6.714 62.7773 6.77467 62.5253 6.896C62.2733 7.01733 62.0633 7.22733 61.8953 7.526C61.7367 7.82467 61.6573 8.23533 61.6573 8.758V12.678C61.6573 12.7713 61.6247 12.8507 61.5593 12.916C61.5033 12.972 61.4287 13 61.3353 13H60.6773C60.584 13 60.5047 12.972 60.4393 12.916C60.3833 12.8507 60.3553 12.7713 60.3553 12.678V8.758C60.3553 8.23533 60.276 7.82467 60.1173 7.526C59.9587 7.22733 59.7533 7.01733 59.5013 6.896C59.2493 6.77467 58.9833 6.714 58.7033 6.714C58.4607 6.714 58.2133 6.77467 57.9613 6.896C57.7093 7.01733 57.4993 7.22733 57.3313 7.526C57.1727 7.82467 57.0933 8.23067 57.0933 8.744V12.678C57.0933 12.7713 57.0607 12.8507 56.9953 12.916C56.9393 12.972 56.8647 13 56.7713 13H56.0993ZM68.4007 15.66C68.3074 15.66 68.2281 15.6273 68.1627 15.562C68.1067 15.506 68.0787 15.4313 68.0787 15.338V6.042C68.0787 5.94867 68.1067 5.874 68.1627 5.818C68.2281 5.75267 68.3074 5.72 68.4007 5.72H69.0447C69.1381 5.72 69.2127 5.75267 69.2687 5.818C69.3341 5.874 69.3667 5.94867 69.3667 6.042V6.658C69.5907 6.35 69.8894 6.09333 70.2627 5.888C70.6361 5.68267 71.1027 5.58 71.6627 5.58C72.1854 5.58 72.6287 5.66867 72.9927 5.846C73.3661 6.02333 73.6694 6.266 73.9027 6.574C74.1454 6.882 74.3274 7.232 74.4487 7.624C74.5701 8.016 74.6354 8.436 74.6447 8.884C74.6541 9.03333 74.6587 9.192 74.6587 9.36C74.6587 9.528 74.6541 9.68667 74.6447 9.836C74.6354 10.2747 74.5701 10.6947 74.4487 11.096C74.3274 11.488 74.1454 11.838 73.9027 12.146C73.6694 12.4447 73.3661 12.6873 72.9927 12.874C72.6287 13.0513 72.1854 13.14 71.6627 13.14C71.1214 13.14 70.6641 13.042 70.2907 12.846C69.9267 12.6407 69.6281 12.3887 69.3947 12.09V15.338C69.3947 15.4313 69.3667 15.506 69.3107 15.562C69.2547 15.6273 69.1754 15.66 69.0727 15.66H68.4007ZM71.3687 12.006C71.8541 12.006 72.2321 11.9033 72.5027 11.698C72.7827 11.4833 72.9834 11.208 73.1047 10.872C73.2261 10.5267 73.2961 10.158 73.3147 9.766C73.3241 9.49533 73.3241 9.22467 73.3147 8.954C73.2961 8.562 73.2261 8.198 73.1047 7.862C72.9834 7.51667 72.7827 7.24133 72.5027 7.036C72.2321 6.82133 71.8541 6.714 71.3687 6.714C70.9114 6.714 70.5381 6.82133 70.2487 7.036C69.9687 7.25067 69.7587 7.526 69.6187 7.862C69.4881 8.18867 69.4134 8.52467 69.3947 8.87C69.3854 9.01933 69.3807 9.19667 69.3807 9.402C69.3807 9.60733 69.3854 9.78933 69.3947 9.948C69.4041 10.2747 69.4787 10.5967 69.6187 10.914C69.7681 11.2313 69.9874 11.4927 70.2767 11.698C70.5661 11.9033 70.9301 12.006 71.3687 12.006ZM76.5866 13C76.4933 13 76.4139 12.972 76.3486 12.916C76.2926 12.8507 76.2646 12.7713 76.2646 12.678V3.382C76.2646 3.28867 76.2926 3.214 76.3486 3.158C76.4139 3.09267 76.4933 3.06 76.5866 3.06H77.2446C77.3473 3.06 77.4266 3.09267 77.4826 3.158C77.5386 3.214 77.5666 3.28867 77.5666 3.382V12.678C77.5666 12.7713 77.5386 12.8507 77.4826 12.916C77.4266 12.972 77.3473 13 77.2446 13H76.5866ZM82.3989 13.14C81.4375 13.14 80.6722 12.846 80.1029 12.258C79.5335 11.6607 79.2209 10.8487 79.1649 9.822C79.1555 9.70067 79.1509 9.54667 79.1509 9.36C79.1509 9.164 79.1555 9.00533 79.1649 8.884C79.2022 8.22133 79.3562 7.64267 79.6269 7.148C79.8975 6.644 80.2662 6.25667 80.7329 5.986C81.2089 5.71533 81.7642 5.58 82.3989 5.58C83.1082 5.58 83.7009 5.72933 84.1769 6.028C84.6622 6.32667 85.0309 6.75133 85.2829 7.302C85.5349 7.85267 85.6609 8.49667 85.6609 9.234V9.472C85.6609 9.57467 85.6282 9.654 85.5629 9.71C85.5069 9.766 85.4322 9.794 85.3389 9.794H80.4949C80.4949 9.80333 80.4949 9.822 80.4949 9.85C80.4949 9.878 80.4949 9.90133 80.4949 9.92C80.5135 10.3027 80.5975 10.662 80.7469 10.998C80.8962 11.3247 81.1109 11.5907 81.3909 11.796C81.6709 12.0013 82.0069 12.104 82.3989 12.104C82.7349 12.104 83.0149 12.0527 83.2389 11.95C83.4629 11.8473 83.6449 11.7353 83.7849 11.614C83.9249 11.4833 84.0182 11.3853 84.0649 11.32C84.1489 11.1987 84.2142 11.1287 84.2609 11.11C84.3075 11.082 84.3822 11.068 84.4849 11.068H85.1569C85.2502 11.068 85.3249 11.096 85.3809 11.152C85.4462 11.1987 85.4742 11.2687 85.4649 11.362C85.4555 11.502 85.3809 11.6747 85.2409 11.88C85.1009 12.076 84.9002 12.272 84.6389 12.468C84.3775 12.664 84.0602 12.8273 83.6869 12.958C83.3135 13.0793 82.8842 13.14 82.3989 13.14ZM80.4949 8.828H84.3309V8.786C84.3309 8.366 84.2515 7.99267 84.0929 7.666C83.9435 7.33933 83.7242 7.08267 83.4349 6.896C83.1455 6.7 82.8002 6.602 82.3989 6.602C81.9975 6.602 81.6522 6.7 81.3629 6.896C81.0829 7.08267 80.8682 7.33933 80.7189 7.666C80.5695 7.99267 80.4949 8.366 80.4949 8.786V8.828ZM89.9819 13C89.4592 13 89.0345 12.902 88.7079 12.706C88.3812 12.5007 88.1432 12.216 87.9939 11.852C87.8445 11.4787 87.7699 11.04 87.7699 10.536V6.84H86.6779C86.5845 6.84 86.5052 6.812 86.4399 6.756C86.3839 6.69067 86.3559 6.61133 86.3559 6.518V6.042C86.3559 5.94867 86.3839 5.874 86.4399 5.818C86.5052 5.75267 86.5845 5.72 86.6779 5.72H87.7699V3.382C87.7699 3.28867 87.7979 3.214 87.8539 3.158C87.9192 3.09267 87.9985 3.06 88.0919 3.06H88.7499C88.8432 3.06 88.9179 3.09267 88.9739 3.158C89.0392 3.214 89.0719 3.28867 89.0719 3.382V5.72H90.8079C90.9012 5.72 90.9759 5.75267 91.0319 5.818C91.0972 5.874 91.1299 5.94867 91.1299 6.042V6.518C91.1299 6.61133 91.0972 6.69067 91.0319 6.756C90.9759 6.812 90.9012 6.84 90.8079 6.84H89.0719V10.438C89.0719 10.8767 89.1465 11.222 89.2959 11.474C89.4452 11.726 89.7112 11.852 90.0939 11.852H90.9479C91.0412 11.852 91.1159 11.8847 91.1719 11.95C91.2372 12.006 91.2699 12.0807 91.2699 12.174V12.678C91.2699 12.7713 91.2372 12.8507 91.1719 12.916C91.1159 12.972 91.0412 13 90.9479 13H89.9819ZM92.7766 13C92.6833 13 92.6039 12.972 92.5386 12.916C92.4826 12.8507 92.4546 12.7713 92.4546 12.678V6.042C92.4546 5.94867 92.4826 5.874 92.5386 5.818C92.6039 5.75267 92.6833 5.72 92.7766 5.72H93.4486C93.5419 5.72 93.6166 5.75267 93.6726 5.818C93.7286 5.874 93.7566 5.94867 93.7566 6.042V12.678C93.7566 12.7713 93.7286 12.8507 93.6726 12.916C93.6166 12.972 93.5419 13 93.4486 13H92.7766ZM92.6646 4.362C92.5713 4.362 92.4919 4.334 92.4266 4.278C92.3706 4.21267 92.3426 4.13333 92.3426 4.04V3.284C92.3426 3.19067 92.3706 3.116 92.4266 3.06C92.4919 2.99467 92.5713 2.962 92.6646 2.962H93.5466C93.6399 2.962 93.7146 2.99467 93.7706 3.06C93.8359 3.116 93.8686 3.19067 93.8686 3.284V4.04C93.8686 4.13333 93.8359 4.21267 93.7706 4.278C93.7146 4.334 93.6399 4.362 93.5466 4.362H92.6646ZM98.6732 13.14C97.9639 13.14 97.3712 13.0047 96.8952 12.734C96.4192 12.4633 96.0552 12.09 95.8032 11.614C95.5512 11.1287 95.4112 10.578 95.3832 9.962C95.3739 9.80333 95.3692 9.60267 95.3692 9.36C95.3692 9.108 95.3739 8.90733 95.3832 8.758C95.4112 8.13267 95.5512 7.582 95.8032 7.106C96.0646 6.63 96.4332 6.25667 96.9092 5.986C97.3852 5.71533 97.9732 5.58 98.6732 5.58C99.3732 5.58 99.9612 5.71533 100.437 5.986C100.913 6.25667 101.277 6.63 101.529 7.106C101.791 7.582 101.935 8.13267 101.963 8.758C101.973 8.90733 101.977 9.108 101.977 9.36C101.977 9.60267 101.973 9.80333 101.963 9.962C101.935 10.578 101.795 11.1287 101.543 11.614C101.291 12.09 100.927 12.4633 100.451 12.734C99.9752 13.0047 99.3826 13.14 98.6732 13.14ZM98.6732 12.062C99.2519 12.062 99.7139 11.88 100.059 11.516C100.405 11.1427 100.591 10.6013 100.619 9.892C100.629 9.752 100.633 9.57467 100.633 9.36C100.633 9.14533 100.629 8.968 100.619 8.828C100.591 8.11867 100.405 7.582 100.059 7.218C99.7139 6.84467 99.2519 6.658 98.6732 6.658C98.0946 6.658 97.6279 6.84467 97.2732 7.218C96.9279 7.582 96.7459 8.11867 96.7272 8.828C96.7179 8.968 96.7132 9.14533 96.7132 9.36C96.7132 9.57467 96.7179 9.752 96.7272 9.892C96.7459 10.6013 96.9279 11.1427 97.2732 11.516C97.6279 11.88 98.0946 12.062 98.6732 12.062ZM103.898 13C103.805 13 103.726 12.972 103.66 12.916C103.604 12.8507 103.576 12.7713 103.576 12.678V6.042C103.576 5.94867 103.604 5.874 103.66 5.818C103.726 5.75267 103.805 5.72 103.898 5.72H104.556C104.65 5.72 104.724 5.75267 104.78 5.818C104.846 5.874 104.878 5.94867 104.878 6.042V6.658C105.121 6.34067 105.424 6.084 105.788 5.888C106.162 5.68267 106.638 5.58 107.216 5.58C107.823 5.58 108.336 5.71533 108.756 5.986C109.186 6.24733 109.508 6.616 109.722 7.092C109.937 7.55867 110.044 8.10467 110.044 8.73V12.678C110.044 12.7713 110.016 12.8507 109.96 12.916C109.904 12.972 109.83 13 109.736 13H109.036C108.943 13 108.864 12.972 108.798 12.916C108.742 12.8507 108.714 12.7713 108.714 12.678V8.8C108.714 8.14667 108.556 7.638 108.238 7.274C107.921 6.90067 107.454 6.714 106.838 6.714C106.26 6.714 105.793 6.90067 105.438 7.274C105.093 7.638 104.92 8.14667 104.92 8.8V12.678C104.92 12.7713 104.888 12.8507 104.822 12.916C104.766 12.972 104.692 13 104.598 13H103.898Z" fill="black" fill-opacity="0.7"/>
<path d="M88.1203 94.1644C89.6345 96.3269 92.6418 96.874 94.5814 95.0833C97.9289 91.9926 100.662 88.2759 102.616 84.1272C105.251 78.5318 106.379 72.3449 105.888 66.1794C105.396 60.0139 103.303 54.0838 99.814 48.9765C96.3254 43.8693 91.563 39.7621 85.9985 37.0618C80.434 34.3616 74.2606 33.162 68.0898 33.5819C61.9191 34.0018 55.9651 36.0267 50.8177 39.4558C45.6704 42.885 41.5082 47.5995 38.7436 53.1323C36.6939 57.2346 35.4651 61.6811 35.1087 66.2233C34.9023 68.8551 37.193 70.8788 39.8287 70.7302C42.4643 70.5815 44.435 68.3091 44.7717 65.6908C45.1412 62.8182 45.9907 60.0163 47.2953 57.4053C49.3154 53.3624 52.3567 49.9175 56.118 47.4118C59.8792 44.906 64.2298 43.4265 68.7389 43.1196C73.2479 42.8128 77.7589 43.6894 81.8249 45.6625C85.8909 47.6355 89.3709 50.6367 91.92 54.3687C94.4692 58.1006 95.9991 62.4338 96.3582 66.939C96.7173 71.4441 95.8931 75.965 93.9673 80.0536C92.7235 82.6941 91.0482 85.0952 89.0202 87.1631C87.1718 89.0478 86.6062 92.002 88.1203 94.1644Z" fill="#6105A2"/>
<path d="M58.03 81C57.946 81 57.876 80.972 57.82 80.916C57.764 80.8507 57.736 80.776 57.736 80.692C57.736 80.6547 57.7453 80.6127 57.764 80.566L61.138 72.866H56.742C56.6393 72.866 56.5553 72.8333 56.49 72.768C56.434 72.7027 56.406 72.6233 56.406 72.53V71.55C56.406 71.4473 56.434 71.3633 56.49 71.298C56.5553 71.2327 56.6393 71.2 56.742 71.2H62.888C62.9907 71.2 63.07 71.2327 63.126 71.298C63.1913 71.3633 63.224 71.4473 63.224 71.55V72.418C63.224 72.5487 63.21 72.6607 63.182 72.754C63.1633 72.838 63.1353 72.9267 63.098 73.02L59.752 80.664C59.724 80.7293 59.6727 80.804 59.598 80.888C59.5327 80.9627 59.4347 81 59.304 81H58.03ZM67.8856 81.154C67.0829 81.154 66.4062 81.0233 65.8556 80.762C65.3049 80.4913 64.8849 80.1413 64.5956 79.712C64.3156 79.2827 64.1662 78.8253 64.1476 78.34C64.1382 78.256 64.1616 78.1907 64.2176 78.144C64.2829 78.088 64.3576 78.06 64.4416 78.06H65.7436C65.8462 78.06 65.9302 78.0833 65.9956 78.13C66.0702 78.1673 66.1262 78.2373 66.1636 78.34C66.2569 78.62 66.3876 78.8487 66.5556 79.026C66.7329 79.2033 66.9336 79.334 67.1576 79.418C67.3909 79.502 67.6336 79.544 67.8856 79.544C68.2216 79.544 68.5249 79.4787 68.7956 79.348C69.0756 79.208 69.2996 79.0027 69.4676 78.732C69.6356 78.4613 69.7196 78.13 69.7196 77.738C69.7196 77.3927 69.6402 77.094 69.4816 76.842C69.3229 76.59 69.1036 76.394 68.8236 76.254C68.5529 76.1047 68.2402 76.03 67.8856 76.03C67.6242 76.03 67.4096 76.0627 67.2416 76.128C67.0736 76.1933 66.9289 76.268 66.8076 76.352C66.6956 76.436 66.5929 76.5107 66.4996 76.576C66.4156 76.6413 66.3176 76.674 66.2056 76.674H64.9176C64.8336 76.674 64.7589 76.646 64.6936 76.59C64.6376 76.5247 64.6096 76.45 64.6096 76.366L65.0996 71.578C65.1089 71.4567 65.1509 71.3633 65.2256 71.298C65.3002 71.2327 65.3889 71.2 65.4916 71.2H70.7556C70.8489 71.2 70.9282 71.2327 70.9936 71.298C71.0589 71.3633 71.0916 71.4427 71.0916 71.536V72.474C71.0916 72.5673 71.0589 72.6467 70.9936 72.712C70.9282 72.7773 70.8489 72.81 70.7556 72.81H66.7096L66.4856 75.092C66.6536 74.98 66.8776 74.8727 67.1576 74.77C67.4376 74.6673 67.8249 74.616 68.3196 74.616C68.7676 74.616 69.1922 74.6907 69.5936 74.84C70.0042 74.98 70.3682 75.19 70.6856 75.47C71.0029 75.7407 71.2502 76.072 71.4276 76.464C71.6142 76.8467 71.7076 77.2853 71.7076 77.78C71.7076 78.4613 71.5489 79.054 71.2316 79.558C70.9142 80.062 70.4709 80.454 69.9016 80.734C69.3322 81.014 68.6602 81.154 67.8856 81.154ZM73.8232 81C73.6272 81 73.5292 80.9067 73.5292 80.72C73.5292 80.664 73.5479 80.6127 73.5852 80.566L80.4872 71.466C80.5525 71.382 80.6179 71.3167 80.6832 71.27C80.7485 71.2233 80.8419 71.2 80.9632 71.2H81.7052C81.9012 71.2 81.9992 71.2933 81.9992 71.48C81.9992 71.536 81.9805 71.5873 81.9432 71.634L75.0412 80.734C74.9759 80.818 74.9105 80.8833 74.8452 80.93C74.7892 80.9767 74.6959 81 74.5652 81H73.8232ZM80.5572 81.084C79.9319 81.084 79.4372 80.9113 79.0732 80.566C78.7092 80.2207 78.5085 79.768 78.4712 79.208C78.4619 78.9653 78.4572 78.7553 78.4572 78.578C78.4572 78.4007 78.4619 78.1813 78.4712 77.92C78.5085 77.36 78.6999 76.9073 79.0452 76.562C79.3999 76.2167 79.9039 76.044 80.5572 76.044C81.2199 76.044 81.7239 76.2167 82.0692 76.562C82.4239 76.9073 82.6152 77.36 82.6432 77.92C82.6619 78.1813 82.6712 78.4007 82.6712 78.578C82.6712 78.7553 82.6619 78.9653 82.6432 79.208C82.6152 79.768 82.4145 80.2207 82.0412 80.566C81.6772 80.9113 81.1825 81.084 80.5572 81.084ZM80.5572 79.992C80.7625 79.992 80.9212 79.95 81.0332 79.866C81.1545 79.782 81.2432 79.6747 81.2992 79.544C81.3552 79.4133 81.3832 79.2827 81.3832 79.152C81.4019 78.9187 81.4112 78.7227 81.4112 78.564C81.4112 78.396 81.4019 78.2047 81.3832 77.99C81.3739 77.7753 81.3085 77.5793 81.1872 77.402C81.0659 77.2153 80.8559 77.122 80.5572 77.122C80.2679 77.122 80.0625 77.2153 79.9412 77.402C79.8199 77.5793 79.7499 77.7753 79.7312 77.99C79.7219 78.2047 79.7172 78.396 79.7172 78.564C79.7172 78.7227 79.7219 78.9187 79.7312 79.152C79.7499 79.2827 79.7825 79.4133 79.8292 79.544C79.8852 79.6747 79.9692 79.782 80.0812 79.866C80.2025 79.95 80.3612 79.992 80.5572 79.992ZM74.9712 76.128C74.3459 76.128 73.8512 75.9647 73.4872 75.638C73.1232 75.3113 72.9225 74.868 72.8852 74.308C72.8759 74.0653 72.8712 73.8553 72.8712 73.678C72.8712 73.4913 72.8759 73.2673 72.8852 73.006C72.9225 72.446 73.1139 71.9933 73.4592 71.648C73.8139 71.3027 74.3179 71.13 74.9712 71.13C75.6339 71.13 76.1379 71.3027 76.4832 71.648C76.8379 71.9933 77.0292 72.446 77.0572 73.006C77.0759 73.2673 77.0852 73.4913 77.0852 73.678C77.0852 73.8553 77.0759 74.0653 77.0572 74.308C77.0292 74.868 76.8285 75.3113 76.4552 75.638C76.0912 75.9647 75.5965 76.128 74.9712 76.128ZM74.9712 75.092C75.1765 75.092 75.3352 75.05 75.4472 74.966C75.5685 74.882 75.6572 74.7747 75.7132 74.644C75.7692 74.5133 75.7972 74.378 75.7972 74.238C75.8159 74.0047 75.8252 73.8087 75.8252 73.65C75.8252 73.482 75.8159 73.2907 75.7972 73.076C75.7879 72.8613 75.7225 72.6653 75.6012 72.488C75.4799 72.3107 75.2699 72.222 74.9712 72.222C74.6819 72.222 74.4765 72.3107 74.3552 72.488C74.2339 72.6653 74.1685 72.8613 74.1592 73.076C74.1499 73.2907 74.1452 73.482 74.1452 73.65C74.1452 73.8087 74.1499 74.0047 74.1592 74.238C74.1685 74.378 74.1965 74.5133 74.2432 74.644C74.2992 74.7747 74.3832 74.882 74.4952 74.966C74.6165 75.05 74.7752 75.092 74.9712 75.092Z" fill="#404040"/>
<circle opacity="0.2" cx="70" cy="60" r="6" fill="#6105A2"/>
<g clip-path="url(#clip0_642_902)">
<path d="M70.1291 56.9529C70.5333 56.9529 70.921 57.1134 71.2068 57.3993C71.4926 57.6851 71.6532 58.0727 71.6532 58.4769C71.6532 58.8811 71.4926 59.2688 71.2068 59.5546C70.921 59.8404 70.5333 60.001 70.1291 60.001C69.7249 60.001 69.3373 59.8404 69.0515 59.5546C68.7657 59.2688 68.6051 58.8811 68.6051 58.4769C68.6051 58.0727 68.7657 57.6851 69.0515 57.3993C69.3373 57.1134 69.7249 56.9529 70.1291 56.9529ZM70.1291 60.763C71.8132 60.763 73.1772 61.445 73.1772 62.287V63.0491H67.0811V62.287C67.0811 61.445 68.4451 60.763 70.1291 60.763Z" fill="#6105A2"/>
</g>
<defs>
<clipPath id="clip0_642_902">
<rect width="9.14427" height="9.14427" fill="white" transform="translate(63.5566 55.4285)"/>
</clipPath>
</defs>
</svg>
