<svg width="145" height="114" viewBox="0 0 145 114" fill="none" xmlns="http://www.w3.org/2000/svg">
<path d="M13.4295 62.1671V50.0989H16.4806V62.1671H13.4295ZM8.92099 57.6586V54.6074H20.9892V57.6586H8.92099ZM30.8606 65.0648C29.5879 65.0648 28.4544 64.8461 27.46 64.4086C26.4714 63.9654 25.6902 63.3574 25.1163 62.5847C24.5481 61.8063 24.2555 60.9086 24.2385 59.8915H27.9544C27.9771 60.3176 28.1163 60.6926 28.372 61.0165C28.6333 61.3347 28.9799 61.5819 29.4118 61.758C29.8436 61.9341 30.3294 62.0222 30.8691 62.0222C31.4316 62.0222 31.9288 61.9228 32.3606 61.7239C32.7924 61.525 33.1305 61.2495 33.3748 60.8972C33.6191 60.5449 33.7413 60.1387 33.7413 59.6784C33.7413 59.2125 33.6106 58.8006 33.3493 58.4426C33.0936 58.079 32.7243 57.7949 32.2413 57.5904C31.764 57.3858 31.1958 57.2836 30.5368 57.2836H28.9089V54.5733H30.5368C31.0936 54.5733 31.5851 54.4767 32.0112 54.2836C32.443 54.0904 32.7782 53.8233 33.0169 53.4824C33.2555 53.1358 33.3748 52.7324 33.3748 52.2722C33.3748 51.8347 33.2697 51.4512 33.0595 51.1216C32.8549 50.7864 32.5652 50.525 32.1902 50.3375C31.8208 50.15 31.389 50.0563 30.8947 50.0563C30.3947 50.0563 29.9373 50.1472 29.5226 50.329C29.1078 50.5051 28.7754 50.758 28.5254 51.0875C28.2754 51.4171 28.1419 51.8034 28.1248 52.2466H24.5879C24.6049 51.2409 24.8919 50.3546 25.4487 49.5875C26.0055 48.8205 26.7555 48.2211 27.6987 47.7892C28.6475 47.3517 29.7186 47.133 30.9118 47.133C32.1163 47.133 33.1703 47.3517 34.0737 47.7892C34.9771 48.2267 35.6788 48.8176 36.1788 49.562C36.6845 50.3006 36.9345 51.1301 36.9288 52.0506C36.9345 53.0279 36.6305 53.8432 36.0169 54.4966C35.4089 55.15 34.6163 55.5648 33.639 55.7409V55.8773C34.9231 56.0421 35.9004 56.4881 36.5708 57.2154C37.247 57.937 37.5822 58.8404 37.5765 59.9256C37.5822 60.9199 37.2953 61.8034 36.7157 62.5762C36.1419 63.3489 35.3493 63.9569 34.3379 64.4C33.3265 64.8432 32.1674 65.0648 30.8606 65.0648ZM39.965 61.758V58.8517L47.252 47.3716H49.7576V51.3944H48.2747L43.6809 58.6642V58.8006H54.036V61.758H39.965ZM48.3429 64.8262V60.8716L48.411 59.5847V47.3716H51.8713V64.8262H48.3429ZM66.0488 61.5534V60.633C66.0488 59.9341 66.1966 59.2921 66.492 58.7069C66.7931 58.1159 67.2278 57.6444 67.796 57.2921C68.3699 56.9341 69.0687 56.7551 69.8926 56.7551C70.7278 56.7551 71.4295 56.9313 71.9977 57.2836C72.5716 57.6358 73.0034 58.1074 73.2931 58.6983C73.5886 59.2836 73.7363 59.9284 73.7363 60.633V61.5534C73.7363 62.2523 73.5886 62.8972 73.2931 63.4881C72.9977 64.0733 72.563 64.5421 71.9892 64.8944C71.4153 65.2523 70.7164 65.4313 69.8926 65.4313C69.0574 65.4313 68.3556 65.2523 67.7875 64.8944C67.2193 64.5421 66.7875 64.0733 66.492 63.4881C66.1966 62.8972 66.0488 62.2523 66.0488 61.5534ZM68.5289 60.633V61.5534C68.5289 61.9569 68.6255 62.3375 68.8187 62.6955C69.0176 63.0534 69.3755 63.2324 69.8926 63.2324C70.4096 63.2324 70.7619 63.0563 70.9494 62.704C71.1426 62.3517 71.2392 61.9682 71.2392 61.5534V60.633C71.2392 60.2182 71.1483 59.8319 70.9664 59.4739C70.7846 59.1159 70.4267 58.937 69.8926 58.937C69.3812 58.937 69.0261 59.1159 68.8272 59.4739C68.6284 59.8319 68.5289 60.2182 68.5289 60.633ZM57.0914 51.5648V50.6444C57.0914 49.9398 57.242 49.2949 57.5431 48.7097C57.8443 48.1188 58.2789 47.6472 58.8471 47.2949C59.421 46.9426 60.1142 46.7665 60.9267 46.7665C61.7676 46.7665 62.4721 46.9426 63.0403 47.2949C63.6085 47.6472 64.0403 48.1188 64.3358 48.7097C64.6312 49.2949 64.7789 49.9398 64.7789 50.6444V51.5648C64.7789 52.2694 64.6284 52.9142 64.3272 53.4995C64.0318 54.0847 63.5971 54.5534 63.0233 54.9057C62.4551 55.2523 61.7562 55.4256 60.9267 55.4256C60.0971 55.4256 59.3954 55.2495 58.8216 54.8972C58.2534 54.5392 57.8216 54.0705 57.5261 53.4909C57.2363 52.9057 57.0914 52.2637 57.0914 51.5648ZM59.5886 50.6444V51.5648C59.5886 51.9796 59.6852 52.3631 59.8784 52.7154C60.0772 53.0676 60.4267 53.2438 60.9267 53.2438C61.4494 53.2438 61.8045 53.0676 61.992 52.7154C62.1852 52.3631 62.2818 51.9796 62.2818 51.5648V50.6444C62.2818 50.2296 62.1909 49.8432 62.0091 49.4853C61.8272 49.1273 61.4664 48.9483 60.9267 48.9483C60.421 48.9483 60.0716 49.1301 59.8784 49.4938C59.6852 49.8574 59.5886 50.2409 59.5886 50.6444ZM58.2164 64.8262L70.2164 47.3716H72.4494L60.4494 64.8262H58.2164Z" fill="black"/>
<path d="M8.62984 13.6699C8.52718 13.6699 8.44784 13.6419 8.39184 13.5859C8.33584 13.5206 8.30784 13.4413 8.30784 13.3479V4.20592C8.30784 4.10325 8.33584 4.02392 8.39184 3.96792C8.44784 3.90259 8.52718 3.86992 8.62984 3.86992H9.32984C9.43251 3.86992 9.51184 3.90259 9.56784 3.96792C9.63318 4.02392 9.66584 4.10325 9.66584 4.20592V7.67792L13.4038 4.09392C13.4412 4.05659 13.5018 4.00992 13.5858 3.95392C13.6792 3.89792 13.8005 3.86992 13.9498 3.86992H14.7058C14.7805 3.86992 14.8458 3.89792 14.9018 3.95392C14.9578 4.00992 14.9858 4.07525 14.9858 4.14992C14.9858 4.22459 14.9672 4.28525 14.9298 4.33192L10.6038 8.55992L15.2098 13.1939C15.2565 13.2499 15.2798 13.3153 15.2798 13.3899C15.2798 13.4646 15.2518 13.5299 15.1958 13.5859C15.1398 13.6419 15.0745 13.6699 14.9998 13.6699H14.2158C14.0572 13.6699 13.9358 13.6419 13.8518 13.5859C13.7678 13.5206 13.7072 13.4739 13.6698 13.4459L9.66584 9.49792V13.3479C9.66584 13.4413 9.63318 13.5206 9.56784 13.5859C9.51184 13.6419 9.43251 13.6699 9.32984 13.6699H8.62984ZM16.702 13.6699C16.6087 13.6699 16.5294 13.6419 16.464 13.5859C16.408 13.5206 16.38 13.4413 16.38 13.3479V6.71192C16.38 6.61859 16.408 6.54392 16.464 6.48792C16.5294 6.42259 16.6087 6.38992 16.702 6.38992H17.36C17.4534 6.38992 17.528 6.42259 17.584 6.48792C17.6494 6.54392 17.682 6.61859 17.682 6.71192V7.32792C17.9247 7.01059 18.228 6.75392 18.592 6.55792C18.9654 6.35259 19.4414 6.24992 20.02 6.24992C20.6267 6.24992 21.14 6.38525 21.56 6.65592C21.9894 6.91725 22.3114 7.28592 22.526 7.76192C22.7407 8.22859 22.848 8.77459 22.848 9.39992V13.3479C22.848 13.4413 22.82 13.5206 22.764 13.5859C22.708 13.6419 22.6334 13.6699 22.54 13.6699H21.84C21.7467 13.6699 21.6674 13.6419 21.602 13.5859C21.546 13.5206 21.518 13.4413 21.518 13.3479V9.46992C21.518 8.81659 21.3594 8.30792 21.042 7.94392C20.7247 7.57059 20.258 7.38392 19.642 7.38392C19.0634 7.38392 18.5967 7.57059 18.242 7.94392C17.8967 8.30792 17.724 8.81659 17.724 9.46992V13.3479C17.724 13.4413 17.6914 13.5206 17.626 13.5859C17.57 13.6419 17.4954 13.6699 17.402 13.6699H16.702ZM27.6983 13.8099C26.9889 13.8099 26.3963 13.6746 25.9203 13.4039C25.4443 13.1333 25.0803 12.7599 24.8283 12.2839C24.5763 11.7986 24.4363 11.2479 24.4083 10.6319C24.3989 10.4733 24.3943 10.2726 24.3943 10.0299C24.3943 9.77792 24.3989 9.57726 24.4083 9.42792C24.4363 8.80259 24.5763 8.25192 24.8283 7.77592C25.0896 7.29992 25.4583 6.92659 25.9343 6.65592C26.4103 6.38525 26.9983 6.24992 27.6983 6.24992C28.3983 6.24992 28.9863 6.38525 29.4623 6.65592C29.9383 6.92659 30.3023 7.29992 30.5543 7.77592C30.8156 8.25192 30.9603 8.80259 30.9883 9.42792C30.9976 9.57726 31.0023 9.77792 31.0023 10.0299C31.0023 10.2726 30.9976 10.4733 30.9883 10.6319C30.9603 11.2479 30.8203 11.7986 30.5683 12.2839C30.3163 12.7599 29.9523 13.1333 29.4763 13.4039C29.0003 13.6746 28.4076 13.8099 27.6983 13.8099ZM27.6983 12.7319C28.2769 12.7319 28.7389 12.5499 29.0843 12.1859C29.4296 11.8126 29.6163 11.2713 29.6443 10.5619C29.6536 10.4219 29.6583 10.2446 29.6583 10.0299C29.6583 9.81525 29.6536 9.63792 29.6443 9.49792C29.6163 8.78859 29.4296 8.25192 29.0843 7.88792C28.7389 7.51459 28.2769 7.32792 27.6983 7.32792C27.1196 7.32792 26.6529 7.51459 26.2983 7.88792C25.9529 8.25192 25.7709 8.78859 25.7523 9.49792C25.7429 9.63792 25.7383 9.81525 25.7383 10.0299C25.7383 10.2446 25.7429 10.4219 25.7523 10.5619C25.7709 11.2713 25.9529 11.8126 26.2983 12.1859C26.6529 12.5499 27.1196 12.7319 27.6983 12.7319ZM34.3419 13.6699C34.2206 13.6699 34.1273 13.6419 34.0619 13.5859C33.9966 13.5206 33.9406 13.4319 33.8939 13.3199L31.9059 6.82392C31.8873 6.77725 31.8779 6.73059 31.8779 6.68392C31.8779 6.59992 31.9059 6.52992 31.9619 6.47392C32.0273 6.41792 32.0973 6.38992 32.1719 6.38992H32.7879C32.8906 6.38992 32.9699 6.41792 33.0259 6.47392C33.0819 6.52992 33.1193 6.58125 33.1379 6.62792L34.6919 11.9059L36.3579 6.68392C36.3766 6.61859 36.4139 6.55325 36.4699 6.48792C36.5353 6.42259 36.6286 6.38992 36.7499 6.38992H37.2259C37.3473 6.38992 37.4406 6.42259 37.5059 6.48792C37.5713 6.55325 37.6086 6.61859 37.6179 6.68392L39.2839 11.9059L40.8379 6.62792C40.8473 6.58125 40.8799 6.52992 40.9359 6.47392C40.9919 6.41792 41.0713 6.38992 41.1739 6.38992H41.7899C41.8739 6.38992 41.9439 6.41792 41.9999 6.47392C42.0559 6.52992 42.0839 6.59992 42.0839 6.68392C42.0839 6.73059 42.0746 6.77725 42.0559 6.82392L40.0679 13.3199C40.0399 13.4319 39.9886 13.5206 39.9139 13.5859C39.8486 13.6419 39.7506 13.6699 39.6199 13.6699H39.0739C38.9526 13.6699 38.8499 13.6419 38.7659 13.5859C38.6913 13.5206 38.6399 13.4319 38.6119 13.3199L36.9879 8.30792L35.3639 13.3199C35.3266 13.4319 35.2706 13.5206 35.1959 13.5859C35.1213 13.6419 35.0186 13.6699 34.8879 13.6699H34.3419ZM43.8165 13.6699C43.7232 13.6699 43.6439 13.6419 43.5785 13.5859C43.5225 13.5206 43.4945 13.4413 43.4945 13.3479V4.05192C43.4945 3.95859 43.5225 3.88392 43.5785 3.82792C43.6439 3.76259 43.7232 3.72992 43.8165 3.72992H44.4745C44.5772 3.72992 44.6565 3.76259 44.7125 3.82792C44.7685 3.88392 44.7965 3.95859 44.7965 4.05192V13.3479C44.7965 13.4413 44.7685 13.5206 44.7125 13.5859C44.6565 13.6419 44.5772 13.6699 44.4745 13.6699H43.8165ZM49.6288 13.8099C48.6675 13.8099 47.9022 13.5159 47.3328 12.9279C46.7635 12.3306 46.4508 11.5186 46.3948 10.4919C46.3855 10.3706 46.3808 10.2166 46.3808 10.0299C46.3808 9.83392 46.3855 9.67526 46.3948 9.55392C46.4322 8.89126 46.5862 8.31259 46.8568 7.81792C47.1275 7.31392 47.4962 6.92659 47.9628 6.65592C48.4388 6.38525 48.9942 6.24992 49.6288 6.24992C50.3382 6.24992 50.9308 6.39925 51.4068 6.69792C51.8922 6.99659 52.2608 7.42125 52.5128 7.97192C52.7648 8.52259 52.8908 9.16659 52.8908 9.90392V10.1419C52.8908 10.2446 52.8582 10.3239 52.7928 10.3799C52.7368 10.4359 52.6622 10.4639 52.5688 10.4639H47.7248C47.7248 10.4733 47.7248 10.4919 47.7248 10.5199C47.7248 10.5479 47.7248 10.5713 47.7248 10.5899C47.7435 10.9726 47.8275 11.3319 47.9768 11.6679C48.1262 11.9946 48.3408 12.2606 48.6208 12.4659C48.9008 12.6713 49.2368 12.7739 49.6288 12.7739C49.9648 12.7739 50.2448 12.7226 50.4688 12.6199C50.6928 12.5173 50.8748 12.4053 51.0148 12.2839C51.1548 12.1533 51.2482 12.0553 51.2948 11.9899C51.3788 11.8686 51.4442 11.7986 51.4908 11.7799C51.5375 11.7519 51.6122 11.7379 51.7148 11.7379H52.3868C52.4802 11.7379 52.5548 11.7659 52.6108 11.8219C52.6762 11.8686 52.7042 11.9386 52.6948 12.0319C52.6855 12.1719 52.6108 12.3446 52.4708 12.5499C52.3308 12.7459 52.1302 12.9419 51.8688 13.1379C51.6075 13.3339 51.2902 13.4973 50.9168 13.6279C50.5435 13.7493 50.1142 13.8099 49.6288 13.8099ZM47.7248 9.49792H51.5608V9.45592C51.5608 9.03592 51.4815 8.66259 51.3228 8.33592C51.1735 8.00926 50.9542 7.75259 50.6648 7.56592C50.3755 7.36992 50.0302 7.27192 49.6288 7.27192C49.2275 7.27192 48.8822 7.36992 48.5928 7.56592C48.3128 7.75259 48.0982 8.00926 47.9488 8.33592C47.7995 8.66259 47.7248 9.03592 47.7248 9.45592V9.49792ZM57.0708 13.8099C56.5575 13.8099 56.1142 13.7213 55.7408 13.5439C55.3675 13.3573 55.0595 13.1099 54.8168 12.8019C54.5835 12.4846 54.4062 12.1253 54.2848 11.7239C54.1728 11.3226 54.1075 10.8979 54.0888 10.4499C54.0795 10.3006 54.0748 10.1606 54.0748 10.0299C54.0748 9.89925 54.0795 9.75925 54.0888 9.60992C54.1075 9.17125 54.1728 8.75125 54.2848 8.34992C54.4062 7.94859 54.5835 7.58926 54.8168 7.27192C55.0595 6.95459 55.3675 6.70725 55.7408 6.52992C56.1142 6.34325 56.5575 6.24992 57.0708 6.24992C57.6215 6.24992 58.0788 6.34792 58.4428 6.54392C58.8068 6.73992 59.1055 6.98259 59.3388 7.27192V4.05192C59.3388 3.95859 59.3668 3.88392 59.4228 3.82792C59.4882 3.76259 59.5675 3.72992 59.6608 3.72992H60.3328C60.4262 3.72992 60.5008 3.76259 60.5568 3.82792C60.6222 3.88392 60.6548 3.95859 60.6548 4.05192V13.3479C60.6548 13.4413 60.6222 13.5206 60.5568 13.5859C60.5008 13.6419 60.4262 13.6699 60.3328 13.6699H59.7028C59.6002 13.6699 59.5208 13.6419 59.4648 13.5859C59.4088 13.5206 59.3808 13.4413 59.3808 13.3479V12.7599C59.1475 13.0586 58.8442 13.3106 58.4708 13.5159C58.0975 13.7119 57.6308 13.8099 57.0708 13.8099ZM57.3648 12.6759C57.8315 12.6759 58.2048 12.5686 58.4848 12.3539C58.7648 12.1393 58.9748 11.8686 59.1148 11.5419C59.2548 11.2059 59.3295 10.8653 59.3388 10.5199C59.3482 10.3706 59.3528 10.1933 59.3528 9.98792C59.3528 9.77326 59.3482 9.59126 59.3388 9.44192C59.3295 9.11526 59.2502 8.79325 59.1008 8.47592C58.9608 8.15859 58.7462 7.89725 58.4568 7.69192C58.1768 7.48659 57.8128 7.38392 57.3648 7.38392C56.8888 7.38392 56.5108 7.49125 56.2308 7.70592C55.9508 7.91125 55.7502 8.18659 55.6288 8.53192C55.5075 8.86792 55.4375 9.23192 55.4188 9.62392C55.4095 9.89459 55.4095 10.1653 55.4188 10.4359C55.4375 10.8279 55.5075 11.1966 55.6288 11.5419C55.7502 11.8779 55.9508 12.1533 56.2308 12.3679C56.5108 12.5733 56.8888 12.6759 57.3648 12.6759ZM65.565 16.7499C64.9303 16.7499 64.4077 16.6659 63.997 16.4979C63.5957 16.3299 63.2783 16.1246 63.045 15.8819C62.821 15.6486 62.6577 15.4106 62.555 15.1679C62.4617 14.9346 62.4103 14.7479 62.401 14.6079C62.3917 14.5146 62.4197 14.4353 62.485 14.3699C62.5597 14.3046 62.639 14.2719 62.723 14.2719H63.395C63.479 14.2719 63.549 14.2906 63.605 14.3279C63.661 14.3653 63.7077 14.4446 63.745 14.5659C63.801 14.7059 63.885 14.8599 63.997 15.0279C64.109 15.2053 64.2817 15.3546 64.515 15.4759C64.7483 15.6066 65.075 15.6719 65.495 15.6719C65.9337 15.6719 66.3023 15.6113 66.601 15.4899C66.8997 15.3779 67.1237 15.1726 67.273 14.8739C67.4317 14.5846 67.511 14.1833 67.511 13.6699V12.7179C67.287 13.0073 66.993 13.2499 66.629 13.4459C66.265 13.6326 65.8077 13.7259 65.257 13.7259C64.7343 13.7259 64.2863 13.6373 63.913 13.4599C63.5397 13.2733 63.2317 13.0259 62.989 12.7179C62.7557 12.4006 62.5783 12.0413 62.457 11.6399C62.345 11.2386 62.2797 10.8186 62.261 10.3799C62.2517 10.1186 62.2517 9.86192 62.261 9.60992C62.2797 9.17125 62.345 8.75125 62.457 8.34992C62.5783 7.94859 62.7557 7.58926 62.989 7.27192C63.2317 6.95459 63.5397 6.70725 63.913 6.52992C64.2863 6.34325 64.7343 6.24992 65.257 6.24992C65.817 6.24992 66.279 6.35725 66.643 6.57192C67.0163 6.77725 67.3197 7.02926 67.553 7.32792V6.72592C67.553 6.63259 67.581 6.55325 67.637 6.48792C67.7023 6.42259 67.7817 6.38992 67.875 6.38992H68.519C68.6123 6.38992 68.6917 6.42259 68.757 6.48792C68.8223 6.55325 68.855 6.63259 68.855 6.72592V13.5159C68.855 14.1413 68.7477 14.6966 68.533 15.1819C68.3277 15.6673 67.9823 16.0499 67.497 16.3299C67.021 16.6099 66.377 16.7499 65.565 16.7499ZM65.537 12.6059C66.0037 12.6059 66.377 12.4986 66.657 12.2839C66.9463 12.0693 67.1563 11.7986 67.287 11.4719C67.427 11.1453 67.5017 10.8139 67.511 10.4779C67.5203 10.3473 67.525 10.1886 67.525 10.0019C67.525 9.80592 67.5203 9.64259 67.511 9.51192C67.5017 9.17592 67.427 8.84459 67.287 8.51792C67.1563 8.19125 66.9463 7.92059 66.657 7.70592C66.377 7.49125 66.0037 7.38392 65.537 7.38392C65.0703 7.38392 64.697 7.49125 64.417 7.70592C64.137 7.91125 63.9363 8.18659 63.815 8.53192C63.6937 8.86792 63.6237 9.23192 63.605 9.62392C63.5957 9.86659 63.5957 10.1139 63.605 10.3659C63.6237 10.7579 63.6937 11.1266 63.815 11.4719C63.9363 11.8079 64.137 12.0833 64.417 12.2979C64.697 12.5033 65.0703 12.6059 65.537 12.6059ZM73.6805 13.8099C72.7192 13.8099 71.9539 13.5159 71.3845 12.9279C70.8152 12.3306 70.5025 11.5186 70.4465 10.4919C70.4372 10.3706 70.4325 10.2166 70.4325 10.0299C70.4325 9.83392 70.4372 9.67526 70.4465 9.55392C70.4839 8.89126 70.6379 8.31259 70.9085 7.81792C71.1792 7.31392 71.5479 6.92659 72.0145 6.65592C72.4905 6.38525 73.0459 6.24992 73.6805 6.24992C74.3899 6.24992 74.9825 6.39925 75.4585 6.69792C75.9439 6.99659 76.3125 7.42125 76.5645 7.97192C76.8165 8.52259 76.9425 9.16659 76.9425 9.90392V10.1419C76.9425 10.2446 76.9099 10.3239 76.8445 10.3799C76.7885 10.4359 76.7139 10.4639 76.6205 10.4639H71.7765C71.7765 10.4733 71.7765 10.4919 71.7765 10.5199C71.7765 10.5479 71.7765 10.5713 71.7765 10.5899C71.7952 10.9726 71.8792 11.3319 72.0285 11.6679C72.1779 11.9946 72.3925 12.2606 72.6725 12.4659C72.9525 12.6713 73.2885 12.7739 73.6805 12.7739C74.0165 12.7739 74.2965 12.7226 74.5205 12.6199C74.7445 12.5173 74.9265 12.4053 75.0665 12.2839C75.2065 12.1533 75.2999 12.0553 75.3465 11.9899C75.4305 11.8686 75.4959 11.7986 75.5425 11.7799C75.5892 11.7519 75.6639 11.7379 75.7665 11.7379H76.4385C76.5319 11.7379 76.6065 11.7659 76.6625 11.8219C76.7279 11.8686 76.7559 11.9386 76.7465 12.0319C76.7372 12.1719 76.6625 12.3446 76.5225 12.5499C76.3825 12.7459 76.1819 12.9419 75.9205 13.1379C75.6592 13.3339 75.3419 13.4973 74.9685 13.6279C74.5952 13.7493 74.1659 13.8099 73.6805 13.8099ZM71.7765 9.49792H75.6125V9.45592C75.6125 9.03592 75.5332 8.66259 75.3745 8.33592C75.2252 8.00926 75.0059 7.75259 74.7165 7.56592C74.4272 7.36992 74.0819 7.27192 73.6805 7.27192C73.2792 7.27192 72.9339 7.36992 72.6445 7.56592C72.3645 7.75259 72.1499 8.00926 72.0005 8.33592C71.8512 8.66259 71.7765 9.03592 71.7765 9.45592V9.49792ZM85.4781 13.8099C84.6568 13.8099 83.9568 13.6559 83.3781 13.3479C82.8088 13.0399 82.3701 12.6059 82.0621 12.0459C81.7635 11.4859 81.5955 10.8279 81.5581 10.0719C81.5488 9.66125 81.5441 9.22725 81.5441 8.76992C81.5441 8.30326 81.5488 7.85992 81.5581 7.43992C81.5955 6.68392 81.7635 6.03059 82.0621 5.47992C82.3701 4.92925 82.8135 4.49992 83.3921 4.19192C83.9708 3.88392 84.6661 3.72992 85.4781 3.72992C86.1408 3.72992 86.7148 3.82325 87.2001 4.00992C87.6855 4.19659 88.0821 4.43459 88.3901 4.72392C88.7075 5.00392 88.9408 5.29792 89.0901 5.60592C89.2488 5.91392 89.3328 6.18459 89.3421 6.41792C89.3515 6.50192 89.3281 6.57192 89.2721 6.62792C89.2161 6.67459 89.1415 6.69792 89.0481 6.69792H88.2221C88.1288 6.69792 88.0588 6.67925 88.0121 6.64192C87.9748 6.60459 87.9375 6.53925 87.9001 6.44592C87.8161 6.20325 87.6761 5.96525 87.4801 5.73192C87.2935 5.49859 87.0368 5.30725 86.7101 5.15792C86.3928 4.99926 85.9821 4.91992 85.4781 4.91992C84.7408 4.91992 84.1435 5.12059 83.6861 5.52192C83.2381 5.92325 82.9955 6.58592 82.9581 7.50992C82.9301 8.34059 82.9301 9.17125 82.9581 10.0019C82.9955 10.9353 83.2428 11.6073 83.7001 12.0179C84.1575 12.4193 84.7548 12.6199 85.4921 12.6199C85.9868 12.6199 86.4255 12.5313 86.8081 12.3539C87.2001 12.1673 87.5081 11.8826 87.7321 11.4999C87.9561 11.1173 88.0681 10.6319 88.0681 10.0439V9.45592H85.9681C85.8748 9.45592 85.7955 9.42792 85.7301 9.37192C85.6741 9.30659 85.6461 9.22259 85.6461 9.11992V8.67192C85.6461 8.56925 85.6741 8.48992 85.7301 8.43392C85.7955 8.36859 85.8748 8.33592 85.9681 8.33592H89.1321C89.2348 8.33592 89.3141 8.36859 89.3701 8.43392C89.4261 8.48992 89.4541 8.56925 89.4541 8.67192V10.0159C89.4541 10.7813 89.2955 11.4486 88.9781 12.0179C88.6701 12.5873 88.2175 13.0306 87.6201 13.3479C87.0228 13.6559 86.3088 13.8099 85.4781 13.8099ZM93.1454 13.8099C92.6788 13.8099 92.2541 13.7166 91.8714 13.5299C91.4888 13.3433 91.1808 13.0913 90.9474 12.7739C90.7141 12.4566 90.5974 12.0973 90.5974 11.6959C90.5974 11.0519 90.8588 10.5386 91.3814 10.1559C91.9041 9.77325 92.5854 9.52125 93.4254 9.39992L95.5114 9.10592V8.69992C95.5114 8.25192 95.3808 7.90192 95.1194 7.64992C94.8674 7.39792 94.4521 7.27192 93.8734 7.27192C93.4534 7.27192 93.1128 7.35592 92.8514 7.52392C92.5994 7.69192 92.4221 7.90659 92.3194 8.16792C92.2634 8.30792 92.1654 8.37792 92.0254 8.37792H91.3954C91.2928 8.37792 91.2134 8.34992 91.1574 8.29392C91.1108 8.22859 91.0874 8.15392 91.0874 8.06992C91.0874 7.92992 91.1388 7.75725 91.2414 7.55192C91.3534 7.34659 91.5214 7.14592 91.7454 6.94992C91.9694 6.75392 92.2541 6.59059 92.5994 6.45992C92.9541 6.31992 93.3834 6.24992 93.8874 6.24992C94.4474 6.24992 94.9188 6.32459 95.3014 6.47392C95.6841 6.61392 95.9828 6.80525 96.1974 7.04792C96.4214 7.29059 96.5801 7.56592 96.6734 7.87392C96.7761 8.18192 96.8274 8.49459 96.8274 8.81192V13.3479C96.8274 13.4413 96.7948 13.5206 96.7294 13.5859C96.6734 13.6419 96.5988 13.6699 96.5054 13.6699H95.8614C95.7588 13.6699 95.6794 13.6419 95.6234 13.5859C95.5674 13.5206 95.5394 13.4413 95.5394 13.3479V12.7459C95.4181 12.9139 95.2548 13.0819 95.0494 13.2499C94.8441 13.4086 94.5874 13.5439 94.2794 13.6559C93.9714 13.7586 93.5934 13.8099 93.1454 13.8099ZM93.4394 12.7599C93.8221 12.7599 94.1721 12.6806 94.4894 12.5219C94.8068 12.3539 95.0541 12.0973 95.2314 11.7519C95.4181 11.4066 95.5114 10.9726 95.5114 10.4499V10.0579L93.8874 10.2959C93.2248 10.3893 92.7254 10.5479 92.3894 10.7719C92.0534 10.9866 91.8854 11.2619 91.8854 11.5979C91.8854 11.8593 91.9601 12.0786 92.1094 12.2559C92.2681 12.4239 92.4641 12.5499 92.6974 12.6339C92.9401 12.7179 93.1874 12.7599 93.4394 12.7599ZM99.008 13.6699C98.9147 13.6699 98.8354 13.6419 98.77 13.5859C98.714 13.5206 98.686 13.4413 98.686 13.3479V6.71192C98.686 6.61859 98.714 6.54392 98.77 6.48792C98.8354 6.42259 98.9147 6.38992 99.008 6.38992H99.68C99.7734 6.38992 99.848 6.42259 99.904 6.48792C99.96 6.54392 99.988 6.61859 99.988 6.71192V13.3479C99.988 13.4413 99.96 13.5206 99.904 13.5859C99.848 13.6419 99.7734 13.6699 99.68 13.6699H99.008ZM98.896 5.03192C98.8027 5.03192 98.7234 5.00392 98.658 4.94792C98.602 4.88259 98.574 4.80325 98.574 4.70992V3.95392C98.574 3.86059 98.602 3.78592 98.658 3.72992C98.7234 3.66459 98.8027 3.63192 98.896 3.63192H99.778C99.8714 3.63192 99.946 3.66459 100.002 3.72992C100.067 3.78592 100.1 3.86059 100.1 3.95392V4.70992C100.1 4.80325 100.067 4.88259 100.002 4.94792C99.946 5.00392 99.8714 5.03192 99.778 5.03192H98.896ZM102.245 13.6699C102.151 13.6699 102.072 13.6419 102.007 13.5859C101.951 13.5206 101.923 13.4413 101.923 13.3479V6.71192C101.923 6.61859 101.951 6.54392 102.007 6.48792C102.072 6.42259 102.151 6.38992 102.245 6.38992H102.903C102.996 6.38992 103.071 6.42259 103.127 6.48792C103.192 6.54392 103.225 6.61859 103.225 6.71192V7.32792C103.467 7.01059 103.771 6.75392 104.135 6.55792C104.508 6.35259 104.984 6.24992 105.563 6.24992C106.169 6.24992 106.683 6.38525 107.103 6.65592C107.532 6.91725 107.854 7.28592 108.069 7.76192C108.283 8.22859 108.391 8.77459 108.391 9.39992V13.3479C108.391 13.4413 108.363 13.5206 108.307 13.5859C108.251 13.6419 108.176 13.6699 108.083 13.6699H107.383C107.289 13.6699 107.21 13.6419 107.145 13.5859C107.089 13.5206 107.061 13.4413 107.061 13.3479V9.46992C107.061 8.81659 106.902 8.30792 106.585 7.94392C106.267 7.57059 105.801 7.38392 105.185 7.38392C104.606 7.38392 104.139 7.57059 103.785 7.94392C103.439 8.30792 103.267 8.81659 103.267 9.46992V13.3479C103.267 13.4413 103.234 13.5206 103.169 13.5859C103.113 13.6419 103.038 13.6699 102.945 13.6699H102.245Z" fill="black" fill-opacity="0.7"/>
<path opacity="0.1" fill-rule="evenodd" clip-rule="evenodd" d="M5.86426 102.776C5.86426 102.776 11.2765 101.983 17.43 103.888C29.1335 107.511 29.8011 100.876 34.1409 97.6766C38.1113 94.7495 41.3995 96.5354 45.8203 100.115C49.0808 102.755 53.8326 107.187 58.7535 106.473C63.2518 105.821 66.4407 100.623 72.6758 99.3016C77.6175 98.2539 81.6335 101.132 87.3239 100.115C95.0434 98.7353 98.4916 90.6123 104.009 90.6123C110.818 90.6123 115.612 83.7422 121.807 83.7422C127.965 83.7422 128.801 87.782 135.537 90.6123C140.687 92.7761 143.165 90.6123 143.165 90.6123V113.799H5.86426V102.776Z" fill="url(#paint0_linear_642_878)"/>
<path d="M5.86426 99.1749C5.86426 99.1749 11.2765 98.3933 17.43 100.271C29.1335 103.842 29.8011 97.3026 34.1409 94.1495C38.1113 91.2647 41.3995 93.0248 45.8203 96.5526C49.0808 99.1545 53.8326 103.522 58.7535 102.819C63.2518 102.176 66.4407 97.0537 72.6758 95.7509C77.6175 94.7184 81.6335 97.555 87.3239 96.5526C95.0434 95.1928 98.4916 87.1874 104.009 87.1874C110.818 87.1874 115.612 80.4004 121.807 80.4004C127.965 80.4004 128.292 84.3981 135.028 87.1874C140.178 89.3199 143.165 87.1874 143.165 87.1874" stroke="#6105A2" stroke-width="2" stroke-linecap="round" stroke-linejoin="round"/>
<defs>
<linearGradient id="paint0_linear_642_878" x1="30.678" y1="98.9932" x2="30.678" y2="113.799" gradientUnits="userSpaceOnUse">
<stop stop-color="#6105A2"/>
<stop offset="1" stop-color="white" stop-opacity="0.01"/>
</linearGradient>
</defs>
</svg>
