<svg width="170" height="133" viewBox="0 0 170 133" fill="none" xmlns="http://www.w3.org/2000/svg">
<path d="M5.78711 14C5.78711 6.26801 12.0551 0 19.7871 0H48.7871C49.8917 0 50.7871 0.895431 50.7871 2V33H5.78711V14Z" fill="#8F8F8F"/>
<path d="M5.78711 12C5.78711 9.79086 7.57797 8 9.78711 8H148.787C156.519 8 162.787 14.268 162.787 22V109C162.787 116.732 156.519 123 148.787 123H5.78711V12Z" fill="#8F8F8F"/>
<path d="M49.7867 9.99893L49.7867 2.06001e-07L61.1313 9.98302L49.7867 9.99893Z" fill="#8F8F8F"/>
<rect x="5.78711" y="18" width="157" height="115" rx="14" fill="white"/>
<path d="M3.78711 36.487C3.78711 28.486 10.2731 22 18.2741 22H151.422C159.554 22 166.093 28.6918 165.906 36.8216L164.114 114.348C163.932 122.216 157.502 128.5 149.631 128.5H18.2741C10.2731 128.5 3.78711 122.014 3.78711 114.013V36.487Z" fill="#ECECEC"/>
<path d="M2.92441 40.623C2.84879 32.5692 9.35664 26 17.4107 26H152.316C160.504 26 167.064 32.7798 166.795 40.9628L164.248 118.489C163.991 126.3 157.584 132.5 149.768 132.5H18.1387C10.1908 132.5 3.72698 126.097 3.65236 118.149L2.92441 40.623Z" fill="#B0B0B0"/>
<path d="M0.654447 45.7234C0.297495 37.1475 7.15364 30 15.737 30H153.364C162.017 30 168.899 37.2595 168.438 45.9006L164.55 118.709C164.122 126.722 157.5 133 149.476 133H18.7675C10.6746 133 4.02148 126.618 3.68492 118.532L0.654447 45.7234Z" fill="white"/>
<path d="M1.78711 65H167.287L165.787 97H2.78711L1.78711 65Z" fill="#D7D7D7"/>
</svg>
