<svg width="46" height="46" viewBox="0 0 46 46" fill="none" xmlns="http://www.w3.org/2000/svg">
<rect width="46" height="46" rx="22.08" fill="#BABABA"/>
<path d="M28.9882 13.3844C28.4758 12.8719 27.6448 12.8719 27.1323 13.3844C26.6199 13.8969 26.6199 14.7278 27.1323 15.2403L30.1414 18.2493H18.874C14.5253 18.2493 11 21.7746 11 26.1233C11 30.472 14.5253 33.9973 18.874 33.9973H25.4356C26.1604 33.9973 26.748 33.4097 26.748 32.6849C26.748 31.9601 26.1604 31.3726 25.4356 31.3726H18.874C15.9749 31.3726 13.6247 29.0224 13.6247 26.1233C13.6247 23.2242 15.9749 20.874 18.874 20.874H30.1414L27.1323 23.883C26.6199 24.3955 26.6199 25.2264 27.1323 25.7389C27.6448 26.2514 28.4758 26.2514 28.9882 25.7389L34.2375 20.4896C34.4836 20.2435 34.6219 19.9097 34.6219 19.5617C34.6219 19.2136 34.4836 18.8798 34.2375 18.6337L28.9882 13.3844Z" fill="#1A1A1A"/>
</svg>
