<svg width="150" height="135" viewBox="0 0 150 135" fill="none" xmlns="http://www.w3.org/2000/svg">
<path d="M11.5804 13.6699C11.4871 13.6699 11.4078 13.6419 11.3424 13.5859C11.2864 13.5206 11.2584 13.4413 11.2584 13.3479V5.11592H8.57044C8.4771 5.11592 8.39777 5.08792 8.33244 5.03192C8.27644 4.96659 8.24844 4.88726 8.24844 4.79392V4.20592C8.24844 4.10325 8.27644 4.02392 8.33244 3.96792C8.39777 3.90259 8.4771 3.86992 8.57044 3.86992H15.3184C15.4211 3.86992 15.5004 3.90259 15.5564 3.96792C15.6218 4.02392 15.6544 4.10325 15.6544 4.20592V4.79392C15.6544 4.88726 15.6218 4.96659 15.5564 5.03192C15.5004 5.08792 15.4211 5.11592 15.3184 5.11592H12.6444V13.3479C12.6444 13.4413 12.6118 13.5206 12.5464 13.5859C12.4904 13.6419 12.4111 13.6699 12.3084 13.6699H11.5804ZM18.53 13.8099C17.8207 13.8099 17.228 13.6746 16.752 13.4039C16.276 13.1333 15.912 12.7599 15.66 12.2839C15.408 11.7986 15.268 11.2479 15.24 10.6319C15.2307 10.4733 15.226 10.2726 15.226 10.0299C15.226 9.77792 15.2307 9.57726 15.24 9.42792C15.268 8.80259 15.408 8.25192 15.66 7.77592C15.9213 7.29992 16.29 6.92659 16.766 6.65592C17.242 6.38525 17.83 6.24992 18.53 6.24992C19.23 6.24992 19.818 6.38525 20.294 6.65592C20.77 6.92659 21.134 7.29992 21.386 7.77592C21.6473 8.25192 21.792 8.80259 21.82 9.42792C21.8293 9.57726 21.834 9.77792 21.834 10.0299C21.834 10.2726 21.8293 10.4733 21.82 10.6319C21.792 11.2479 21.652 11.7986 21.4 12.2839C21.148 12.7599 20.784 13.1333 20.308 13.4039C19.832 13.6746 19.2393 13.8099 18.53 13.8099ZM18.53 12.7319C19.1087 12.7319 19.5707 12.5499 19.916 12.1859C20.2613 11.8126 20.448 11.2713 20.476 10.5619C20.4853 10.4219 20.49 10.2446 20.49 10.0299C20.49 9.81525 20.4853 9.63792 20.476 9.49792C20.448 8.78859 20.2613 8.25192 19.916 7.88792C19.5707 7.51459 19.1087 7.32792 18.53 7.32792C17.9513 7.32792 17.4847 7.51459 17.13 7.88792C16.7847 8.25192 16.6027 8.78859 16.584 9.49792C16.5747 9.63792 16.57 9.81525 16.57 10.0299C16.57 10.2446 16.5747 10.4219 16.584 10.5619C16.6027 11.2713 16.7847 11.8126 17.13 12.1859C17.4847 12.5499 17.9513 12.7319 18.53 12.7319ZM26.0931 13.8099C25.5797 13.8099 25.1364 13.7213 24.7631 13.5439C24.3897 13.3573 24.0817 13.1099 23.8391 12.8019C23.6057 12.4846 23.4284 12.1253 23.3071 11.7239C23.1951 11.3226 23.1297 10.8979 23.1111 10.4499C23.1017 10.3006 23.0971 10.1606 23.0971 10.0299C23.0971 9.89925 23.1017 9.75925 23.1111 9.60992C23.1297 9.17125 23.1951 8.75125 23.3071 8.34992C23.4284 7.94859 23.6057 7.58926 23.8391 7.27192C24.0817 6.95459 24.3897 6.70725 24.7631 6.52992C25.1364 6.34325 25.5797 6.24992 26.0931 6.24992C26.6437 6.24992 27.1011 6.34792 27.4651 6.54392C27.8291 6.73992 28.1277 6.98259 28.3611 7.27192V4.05192C28.3611 3.95859 28.3891 3.88392 28.4451 3.82792C28.5104 3.76259 28.5897 3.72992 28.6831 3.72992H29.3551C29.4484 3.72992 29.5231 3.76259 29.5791 3.82792C29.6444 3.88392 29.6771 3.95859 29.6771 4.05192V13.3479C29.6771 13.4413 29.6444 13.5206 29.5791 13.5859C29.5231 13.6419 29.4484 13.6699 29.3551 13.6699H28.7251C28.6224 13.6699 28.5431 13.6419 28.4871 13.5859C28.4311 13.5206 28.4031 13.4413 28.4031 13.3479V12.7599C28.1697 13.0586 27.8664 13.3106 27.4931 13.5159C27.1197 13.7119 26.6531 13.8099 26.0931 13.8099ZM26.3871 12.6759C26.8537 12.6759 27.2271 12.5686 27.5071 12.3539C27.7871 12.1393 27.9971 11.8686 28.1371 11.5419C28.2771 11.2059 28.3517 10.8653 28.3611 10.5199C28.3704 10.3706 28.3751 10.1933 28.3751 9.98792C28.3751 9.77326 28.3704 9.59126 28.3611 9.44192C28.3517 9.11526 28.2724 8.79325 28.1231 8.47592C27.9831 8.15859 27.7684 7.89725 27.4791 7.69192C27.1991 7.48659 26.8351 7.38392 26.3871 7.38392C25.9111 7.38392 25.5331 7.49125 25.2531 7.70592C24.9731 7.91125 24.7724 8.18659 24.6511 8.53192C24.5297 8.86792 24.4597 9.23192 24.4411 9.62392C24.4317 9.89459 24.4317 10.1653 24.4411 10.4359C24.4597 10.8279 24.5297 11.1966 24.6511 11.5419C24.7724 11.8779 24.9731 12.1533 25.2531 12.3679C25.5331 12.5733 25.9111 12.6759 26.3871 12.6759ZM33.6353 13.8099C33.1686 13.8099 32.7439 13.7166 32.3613 13.5299C31.9786 13.3433 31.6706 13.0913 31.4373 12.7739C31.2039 12.4566 31.0873 12.0973 31.0873 11.6959C31.0873 11.0519 31.3486 10.5386 31.8713 10.1559C32.3939 9.77325 33.0753 9.52125 33.9153 9.39992L36.0013 9.10592V8.69992C36.0013 8.25192 35.8706 7.90192 35.6093 7.64992C35.3573 7.39792 34.9419 7.27192 34.3633 7.27192C33.9433 7.27192 33.6026 7.35592 33.3413 7.52392C33.0893 7.69192 32.9119 7.90659 32.8093 8.16792C32.7533 8.30792 32.6553 8.37792 32.5153 8.37792H31.8853C31.7826 8.37792 31.7033 8.34992 31.6473 8.29392C31.6006 8.22859 31.5773 8.15392 31.5773 8.06992C31.5773 7.92992 31.6286 7.75725 31.7313 7.55192C31.8433 7.34659 32.0113 7.14592 32.2353 6.94992C32.4593 6.75392 32.7439 6.59059 33.0893 6.45992C33.4439 6.31992 33.8733 6.24992 34.3773 6.24992C34.9373 6.24992 35.4086 6.32459 35.7913 6.47392C36.1739 6.61392 36.4726 6.80525 36.6873 7.04792C36.9113 7.29059 37.0699 7.56592 37.1633 7.87392C37.2659 8.18192 37.3173 8.49459 37.3173 8.81192V13.3479C37.3173 13.4413 37.2846 13.5206 37.2193 13.5859C37.1633 13.6419 37.0886 13.6699 36.9953 13.6699H36.3513C36.2486 13.6699 36.1693 13.6419 36.1133 13.5859C36.0573 13.5206 36.0293 13.4413 36.0293 13.3479V12.7459C35.9079 12.9139 35.7446 13.0819 35.5393 13.2499C35.3339 13.4086 35.0773 13.5439 34.7693 13.6559C34.4613 13.7586 34.0833 13.8099 33.6353 13.8099ZM33.9293 12.7599C34.3119 12.7599 34.6619 12.6806 34.9793 12.5219C35.2966 12.3539 35.5439 12.0973 35.7213 11.7519C35.9079 11.4066 36.0013 10.9726 36.0013 10.4499V10.0579L34.3773 10.2959C33.7146 10.3893 33.2153 10.5479 32.8793 10.7719C32.5433 10.9866 32.3753 11.2619 32.3753 11.5979C32.3753 11.8593 32.4499 12.0786 32.5993 12.2559C32.7579 12.4239 32.9539 12.5499 33.1873 12.6339C33.4299 12.7179 33.6773 12.7599 33.9293 12.7599ZM40.2995 16.3299C40.2248 16.3299 40.1595 16.3019 40.1035 16.2459C40.0475 16.1899 40.0195 16.1246 40.0195 16.0499C40.0195 16.0126 40.0241 15.9753 40.0335 15.9379C40.0428 15.9006 40.0615 15.8539 40.0895 15.7979L41.1675 13.2359L38.4935 6.92192C38.4468 6.80992 38.4235 6.73059 38.4235 6.68392C38.4235 6.59992 38.4515 6.52992 38.5075 6.47392C38.5635 6.41792 38.6335 6.38992 38.7175 6.38992H39.4035C39.4968 6.38992 39.5715 6.41325 39.6275 6.45992C39.6835 6.50659 39.7208 6.56259 39.7395 6.62792L41.8675 11.7239L44.0515 6.62792C44.0795 6.56259 44.1168 6.50659 44.1635 6.45992C44.2195 6.41325 44.2988 6.38992 44.4015 6.38992H45.0595C45.1435 6.38992 45.2135 6.41792 45.2695 6.47392C45.3255 6.52992 45.3535 6.59526 45.3535 6.66992C45.3535 6.71659 45.3301 6.80059 45.2835 6.92192L41.3075 16.0919C41.2795 16.1573 41.2375 16.2133 41.1815 16.2599C41.1348 16.3066 41.0601 16.3299 40.9575 16.3299H40.2995ZM48.8837 13.8099C48.361 13.8099 47.913 13.7446 47.5397 13.6139C47.1663 13.4833 46.863 13.3246 46.6297 13.1379C46.3963 12.9513 46.219 12.7646 46.0977 12.5779C45.9857 12.3913 45.925 12.2419 45.9157 12.1299C45.9063 12.0273 45.939 11.9479 46.0137 11.8919C46.0883 11.8359 46.163 11.8079 46.2377 11.8079H46.8537C46.9097 11.8079 46.9517 11.8173 46.9797 11.8359C47.017 11.8453 47.0637 11.8826 47.1197 11.9479C47.241 12.0786 47.3763 12.2093 47.5257 12.3399C47.675 12.4706 47.857 12.5779 48.0717 12.6619C48.2957 12.7459 48.571 12.7879 48.8977 12.7879C49.3737 12.7879 49.7657 12.6993 50.0737 12.5219C50.3817 12.3353 50.5357 12.0646 50.5357 11.7099C50.5357 11.4766 50.4703 11.2899 50.3397 11.1499C50.2183 11.0099 49.9943 10.8839 49.6677 10.7719C49.3503 10.6599 48.9117 10.5433 48.3517 10.4219C47.7917 10.2913 47.3483 10.1326 47.0217 9.94592C46.695 9.74992 46.4617 9.52126 46.3217 9.25992C46.1817 8.98925 46.1117 8.68592 46.1117 8.34992C46.1117 8.00459 46.2143 7.67325 46.4197 7.35592C46.625 7.02925 46.9237 6.76325 47.3157 6.55792C47.717 6.35259 48.2163 6.24992 48.8137 6.24992C49.299 6.24992 49.7143 6.31059 50.0597 6.43192C50.405 6.55326 50.6897 6.70726 50.9137 6.89392C51.1377 7.07125 51.3057 7.24859 51.4177 7.42592C51.5297 7.60326 51.5903 7.75259 51.5997 7.87392C51.609 7.96725 51.581 8.04659 51.5157 8.11192C51.4503 8.16792 51.3757 8.19592 51.2917 8.19592H50.7037C50.6383 8.19592 50.5823 8.18192 50.5357 8.15392C50.4983 8.12592 50.461 8.09325 50.4237 8.05592C50.3303 7.93459 50.2183 7.81325 50.0877 7.69192C49.9663 7.57059 49.803 7.47259 49.5977 7.39792C49.4017 7.31392 49.1403 7.27192 48.8137 7.27192C48.347 7.27192 47.997 7.36992 47.7637 7.56592C47.5303 7.76192 47.4137 8.00925 47.4137 8.30792C47.4137 8.48525 47.465 8.64392 47.5677 8.78392C47.6703 8.92392 47.8663 9.04992 48.1557 9.16192C48.445 9.27392 48.8743 9.39526 49.4437 9.52592C50.0597 9.64725 50.545 9.81059 50.8997 10.0159C51.2543 10.2213 51.5063 10.4593 51.6557 10.7299C51.805 11.0006 51.8797 11.3133 51.8797 11.6679C51.8797 12.0599 51.763 12.4193 51.5297 12.7459C51.3057 13.0726 50.9697 13.3339 50.5217 13.5299C50.083 13.7166 49.537 13.8099 48.8837 13.8099ZM55.7789 13.6699C55.7042 13.6699 55.6389 13.6419 55.5829 13.5859C55.5269 13.5299 55.4989 13.4646 55.4989 13.3899C55.4989 13.3433 55.5035 13.2919 55.5129 13.2359L58.9849 4.17792C59.0222 4.08459 59.0735 4.00992 59.1389 3.95392C59.2042 3.89792 59.3022 3.86992 59.4329 3.86992H60.3849C60.5062 3.86992 60.5995 3.89792 60.6649 3.95392C60.7395 4.00992 60.7955 4.08459 60.8329 4.17792L64.2909 13.2359C64.3095 13.2919 64.3189 13.3433 64.3189 13.3899C64.3189 13.4646 64.2909 13.5299 64.2349 13.5859C64.1789 13.6419 64.1135 13.6699 64.0389 13.6699H63.3249C63.2129 13.6699 63.1289 13.6419 63.0729 13.5859C63.0262 13.5299 62.9935 13.4786 62.9749 13.4319L62.2049 11.4439H57.6129L56.8429 13.4319C56.8335 13.4786 56.8009 13.5299 56.7449 13.5859C56.6889 13.6419 56.6049 13.6699 56.4929 13.6699H55.7789ZM58.0189 10.2399H61.7989L59.9089 5.26992L58.0189 10.2399ZM68.3378 13.8099C67.6751 13.8099 67.1011 13.6839 66.6158 13.4319C66.1398 13.1706 65.7711 12.8019 65.5098 12.3259C65.2484 11.8406 65.1084 11.2619 65.0898 10.5899C65.0804 10.4499 65.0758 10.2633 65.0758 10.0299C65.0758 9.79659 65.0804 9.60992 65.0898 9.46992C65.1084 8.79792 65.2484 8.22392 65.5098 7.74792C65.7711 7.26259 66.1398 6.89392 66.6158 6.64192C67.1011 6.38059 67.6751 6.24992 68.3378 6.24992C68.8791 6.24992 69.3411 6.32459 69.7238 6.47392C70.1158 6.62325 70.4378 6.81459 70.6898 7.04792C70.9418 7.28125 71.1284 7.53325 71.2498 7.80392C71.3804 8.07459 71.4504 8.33125 71.4598 8.57392C71.4691 8.66726 71.4411 8.74192 71.3758 8.79792C71.3104 8.85392 71.2311 8.88192 71.1378 8.88192H70.4658C70.3724 8.88192 70.3024 8.86326 70.2558 8.82592C70.2091 8.77926 70.1624 8.70459 70.1158 8.60192C69.9478 8.14459 69.7191 7.82259 69.4298 7.63592C69.1404 7.44925 68.7811 7.35592 68.3518 7.35592C67.7918 7.35592 67.3344 7.52859 66.9798 7.87392C66.6344 8.21926 66.4478 8.77459 66.4198 9.53992C66.4104 9.87592 66.4104 10.2026 66.4198 10.5199C66.4478 11.2946 66.6344 11.8546 66.9798 12.1999C67.3344 12.5359 67.7918 12.7039 68.3518 12.7039C68.7811 12.7039 69.1404 12.6106 69.4298 12.4239C69.7191 12.2373 69.9478 11.9153 70.1158 11.4579C70.1624 11.3553 70.2091 11.2853 70.2558 11.2479C70.3024 11.2013 70.3724 11.1779 70.4658 11.1779H71.1378C71.2311 11.1779 71.3104 11.2059 71.3758 11.2619C71.4411 11.3179 71.4691 11.3926 71.4598 11.4859C71.4504 11.6819 71.4084 11.8826 71.3338 12.0879C71.2591 12.2933 71.1378 12.5033 70.9698 12.7179C70.8111 12.9233 70.6104 13.1099 70.3678 13.2779C70.1251 13.4366 69.8311 13.5673 69.4858 13.6699C69.1498 13.7633 68.7671 13.8099 68.3378 13.8099ZM75.8104 13.6699C75.2877 13.6699 74.863 13.5719 74.5364 13.3759C74.2097 13.1706 73.9717 12.8859 73.8224 12.5219C73.673 12.1486 73.5984 11.7099 73.5984 11.2059V7.50992H72.5064C72.413 7.50992 72.3337 7.48192 72.2684 7.42592C72.2124 7.36059 72.1844 7.28125 72.1844 7.18792V6.71192C72.1844 6.61859 72.2124 6.54392 72.2684 6.48792C72.3337 6.42259 72.413 6.38992 72.5064 6.38992H73.5984V4.05192C73.5984 3.95859 73.6264 3.88392 73.6824 3.82792C73.7477 3.76259 73.827 3.72992 73.9204 3.72992H74.5784C74.6717 3.72992 74.7464 3.76259 74.8024 3.82792C74.8677 3.88392 74.9004 3.95859 74.9004 4.05192V6.38992H76.6364C76.7297 6.38992 76.8044 6.42259 76.8604 6.48792C76.9257 6.54392 76.9584 6.61859 76.9584 6.71192V7.18792C76.9584 7.28125 76.9257 7.36059 76.8604 7.42592C76.8044 7.48192 76.7297 7.50992 76.6364 7.50992H74.9004V11.1079C74.9004 11.5466 74.975 11.8919 75.1244 12.1439C75.2737 12.3959 75.5397 12.5219 75.9224 12.5219H76.7764C76.8697 12.5219 76.9444 12.5546 77.0004 12.6199C77.0657 12.6759 77.0984 12.7506 77.0984 12.8439V13.3479C77.0984 13.4413 77.0657 13.5206 77.0004 13.5859C76.9444 13.6419 76.8697 13.6699 76.7764 13.6699H75.8104ZM78.6051 13.6699C78.5118 13.6699 78.4324 13.6419 78.3671 13.5859C78.3111 13.5206 78.2831 13.4413 78.2831 13.3479V6.71192C78.2831 6.61859 78.3111 6.54392 78.3671 6.48792C78.4324 6.42259 78.5118 6.38992 78.6051 6.38992H79.2771C79.3704 6.38992 79.4451 6.42259 79.5011 6.48792C79.5571 6.54392 79.5851 6.61859 79.5851 6.71192V13.3479C79.5851 13.4413 79.5571 13.5206 79.5011 13.5859C79.4451 13.6419 79.3704 13.6699 79.2771 13.6699H78.6051ZM78.4931 5.03192C78.3998 5.03192 78.3204 5.00392 78.2551 4.94792C78.1991 4.88259 78.1711 4.80325 78.1711 4.70992V3.95392C78.1711 3.86059 78.1991 3.78592 78.2551 3.72992C78.3204 3.66459 78.3998 3.63192 78.4931 3.63192H79.3751C79.4684 3.63192 79.5431 3.66459 79.5991 3.72992C79.6644 3.78592 79.6971 3.86059 79.6971 3.95392V4.70992C79.6971 4.80325 79.6644 4.88259 79.5991 4.94792C79.5431 5.00392 79.4684 5.03192 79.3751 5.03192H78.4931ZM84.0537 13.6699C83.9137 13.6699 83.8017 13.6373 83.7177 13.5719C83.6431 13.5066 83.5824 13.4226 83.5357 13.3199L80.9457 6.82392C80.9271 6.77725 80.9177 6.73059 80.9177 6.68392C80.9177 6.59992 80.9457 6.52992 81.0017 6.47392C81.0577 6.41792 81.1277 6.38992 81.2117 6.38992H81.8837C81.9864 6.38992 82.0657 6.41792 82.1217 6.47392C82.1777 6.52992 82.2104 6.58125 82.2197 6.62792L84.3617 12.1439L86.4897 6.62792C86.5084 6.58125 86.5411 6.52992 86.5877 6.47392C86.6437 6.41792 86.7231 6.38992 86.8257 6.38992H87.5117C87.5864 6.38992 87.6517 6.41792 87.7077 6.47392C87.7731 6.52992 87.8057 6.59992 87.8057 6.68392C87.8057 6.73059 87.7964 6.77725 87.7777 6.82392L85.1737 13.3199C85.1364 13.4226 85.0757 13.5066 84.9917 13.5719C84.9171 13.6373 84.8051 13.6699 84.6557 13.6699H84.0537ZM89.4397 13.6699C89.3464 13.6699 89.267 13.6419 89.2017 13.5859C89.1457 13.5206 89.1177 13.4413 89.1177 13.3479V6.71192C89.1177 6.61859 89.1457 6.54392 89.2017 6.48792C89.267 6.42259 89.3464 6.38992 89.4397 6.38992H90.1117C90.205 6.38992 90.2797 6.42259 90.3357 6.48792C90.3917 6.54392 90.4197 6.61859 90.4197 6.71192V13.3479C90.4197 13.4413 90.3917 13.5206 90.3357 13.5859C90.2797 13.6419 90.205 13.6699 90.1117 13.6699H89.4397ZM89.3277 5.03192C89.2344 5.03192 89.155 5.00392 89.0897 4.94792C89.0337 4.88259 89.0057 4.80325 89.0057 4.70992V3.95392C89.0057 3.86059 89.0337 3.78592 89.0897 3.72992C89.155 3.66459 89.2344 3.63192 89.3277 3.63192H90.2097C90.303 3.63192 90.3777 3.66459 90.4337 3.72992C90.499 3.78592 90.5317 3.86059 90.5317 3.95392V4.70992C90.5317 4.80325 90.499 4.88259 90.4337 4.94792C90.3777 5.00392 90.303 5.03192 90.2097 5.03192H89.3277ZM95.1963 13.6699C94.6736 13.6699 94.249 13.5719 93.9223 13.3759C93.5956 13.1706 93.3576 12.8859 93.2083 12.5219C93.059 12.1486 92.9843 11.7099 92.9843 11.2059V7.50992H91.8923C91.799 7.50992 91.7196 7.48192 91.6543 7.42592C91.5983 7.36059 91.5703 7.28125 91.5703 7.18792V6.71192C91.5703 6.61859 91.5983 6.54392 91.6543 6.48792C91.7196 6.42259 91.799 6.38992 91.8923 6.38992H92.9843V4.05192C92.9843 3.95859 93.0123 3.88392 93.0683 3.82792C93.1336 3.76259 93.213 3.72992 93.3063 3.72992H93.9643C94.0576 3.72992 94.1323 3.76259 94.1883 3.82792C94.2536 3.88392 94.2863 3.95859 94.2863 4.05192V6.38992H96.0223C96.1156 6.38992 96.1903 6.42259 96.2463 6.48792C96.3116 6.54392 96.3443 6.61859 96.3443 6.71192V7.18792C96.3443 7.28125 96.3116 7.36059 96.2463 7.42592C96.1903 7.48192 96.1156 7.50992 96.0223 7.50992H94.2863V11.1079C94.2863 11.5466 94.361 11.8919 94.5103 12.1439C94.6596 12.3959 94.9256 12.5219 95.3083 12.5219H96.1623C96.2556 12.5219 96.3303 12.5546 96.3863 12.6199C96.4516 12.6759 96.4843 12.7506 96.4843 12.8439V13.3479C96.4843 13.4413 96.4516 13.5206 96.3863 13.5859C96.3303 13.6419 96.2556 13.6699 96.1623 13.6699H95.1963ZM98.9431 16.3299C98.8684 16.3299 98.8031 16.3019 98.7471 16.2459C98.6911 16.1899 98.6631 16.1246 98.6631 16.0499C98.6631 16.0126 98.6677 15.9753 98.6771 15.9379C98.6864 15.9006 98.7051 15.8539 98.7331 15.7979L99.8111 13.2359L97.1371 6.92192C97.0904 6.80992 97.0671 6.73059 97.0671 6.68392C97.0671 6.59992 97.0951 6.52992 97.1511 6.47392C97.2071 6.41792 97.2771 6.38992 97.3611 6.38992H98.0471C98.1404 6.38992 98.2151 6.41325 98.2711 6.45992C98.3271 6.50659 98.3644 6.56259 98.3831 6.62792L100.511 11.7239L102.695 6.62792C102.723 6.56259 102.76 6.50659 102.807 6.45992C102.863 6.41325 102.942 6.38992 103.045 6.38992H103.703C103.787 6.38992 103.857 6.41792 103.913 6.47392C103.969 6.52992 103.997 6.59526 103.997 6.66992C103.997 6.71659 103.974 6.80059 103.927 6.92192L99.9511 16.0919C99.9231 16.1573 99.8811 16.2133 99.8251 16.2599C99.7784 16.3066 99.7037 16.3299 99.6011 16.3299H98.9431Z" fill="black" fill-opacity="0.7"/>
<path d="M34.2719 82.3976C25.5151 81.7845 14.331 89.189 9.91572 92.4102C8.6846 93.3083 8 94.7499 8 96.2738V128.946C8 131.737 10.2629 134 13.0544 134H142.946C145.737 134 148 131.737 148 128.946V91.8547C148 87.8151 143.371 85.2562 139.609 86.728C136.445 87.9661 132.89 88.8628 129.902 88.3652C118.185 86.4142 124.811 66.1679 113.438 62.7395C105.2 60.2561 99.8496 70.2061 91.8365 67.0689C83.7737 63.9123 86.5202 53.1189 78.8757 49.049C61.587 39.8446 75.7969 94.2486 56.2235 93.8648C46.5579 93.6752 43.9158 83.0727 34.2719 82.3976Z" fill="url(#paint0_linear_642_885)"/>
<path d="M8 93.998C8 93.998 23.1083 81.7136 34.2719 82.4975C43.9158 83.1746 46.5579 93.8079 56.2235 93.998C75.7969 94.3829 61.587 39.8209 78.8757 49.0521C86.5202 53.1338 83.7737 63.9585 91.8365 67.1243C99.8496 70.2706 105.2 60.2917 113.438 62.7823C124.811 66.2207 118.185 86.5258 129.902 88.4824C137.242 89.7082 148 82.4975 148 82.4975" stroke="url(#paint1_linear_642_885)" stroke-width="2.16415" stroke-linecap="round"/>
<path d="M8 68.7356C8 68.7356 19.6455 77.5098 27.5837 76.8268C37.5009 75.9735 38.0391 61.3967 47.9833 61.0067C59.7959 60.5433 59.6349 84.4217 71.0641 81.2951C77.483 79.5391 77.3068 71.4778 83.6536 69.4602C94.6556 65.9626 97.6529 86.4501 109.066 84.918C118.493 83.6524 118.388 68.6379 127.833 67.5279C135.918 66.578 138.674 72.2378 148 74.8946" stroke="#6105A2" stroke-width="2.16415" stroke-linecap="round"/>
<path opacity="0.3" d="M39 133V40" stroke="#171724" stroke-width="0.43283" stroke-linecap="round" stroke-dasharray="0 0.43 6.06 0 0.43 6.06"/>
<path opacity="0.3" d="M59 133V40" stroke="#171724" stroke-width="0.43283" stroke-linecap="round" stroke-dasharray="0 0.43 6.06 0 0.43 6.06"/>
<path opacity="0.3" d="M78 134V41" stroke="#171724" stroke-width="0.43283" stroke-linecap="round" stroke-dasharray="0 0.43 6.06 0 0.43 6.06"/>
<path opacity="0.3" d="M97 134V41" stroke="#171724" stroke-width="0.43283" stroke-linecap="round" stroke-dasharray="0 0.43 6.06 0 0.43 6.06"/>
<g filter="url(#filter0_d_642_885)">
<circle cx="78" cy="48" r="4" fill="#6105A2"/>
</g>
<defs>
<filter id="filter0_d_642_885" x="63.1792" y="35.3434" width="29.6415" height="29.6415" filterUnits="userSpaceOnUse" color-interpolation-filters="sRGB">
<feFlood flood-opacity="0" result="BackgroundImageFix"/>
<feColorMatrix in="SourceAlpha" type="matrix" values="0 0 0 0 0 0 0 0 0 0 0 0 0 0 0 0 0 0 127 0" result="hardAlpha"/>
<feOffset dy="2.16415"/>
<feGaussianBlur stdDeviation="5.41038"/>
<feColorMatrix type="matrix" values="0 0 0 0 0 0 0 0 0 0 0 0 0 0 0 0 0 0 0.1 0"/>
<feBlend mode="normal" in2="BackgroundImageFix" result="effect1_dropShadow_642_885"/>
<feBlend mode="normal" in="SourceGraphic" in2="effect1_dropShadow_642_885" result="shape"/>
</filter>
<linearGradient id="paint0_linear_642_885" x1="78" y1="48" x2="78" y2="134" gradientUnits="userSpaceOnUse">
<stop stop-color="#F6F7F9" stop-opacity="0.3"/>
<stop offset="1" stop-color="#F6F7F9" stop-opacity="0"/>
</linearGradient>
<linearGradient id="paint1_linear_642_885" x1="78" y1="48" x2="78" y2="94" gradientUnits="userSpaceOnUse">
<stop stop-color="#38A169"/>
<stop offset="1" stop-color="#37A169"/>
</linearGradient>
</defs>
</svg>
