<svg width="16" height="16" viewBox="0 0 16 16" fill="none" xmlns="http://www.w3.org/2000/svg">
<path d="M13.663 5.84796H10.2169C9.41689 5.84796 8.92458 5.35565 8.92458 4.55565V1.1095C8.92458 0.832572 8.70919 0.617188 8.43227 0.617188H3.32458C2.52458 0.617188 1.84766 1.29411 1.84766 2.09411V13.9095C1.84766 14.7095 2.52458 15.3864 3.32458 15.3864H12.6784C13.4784 15.3864 14.1553 14.7095 14.1553 13.9095V6.34026C14.1553 6.06334 13.94 5.84796 13.663 5.84796Z" fill="#63019C"/>
<path d="M14.0639 3.97103L10.8024 0.709495C10.7409 0.647957 10.6178 0.617188 10.5255 0.617188C10.3409 0.617188 10.1562 0.771034 10.1562 0.955649V3.57103C10.1562 4.12488 10.6486 4.61719 11.2024 4.61719H13.8178C14.0024 4.61719 14.1562 4.43257 14.1562 4.24796C14.1562 4.15565 14.1255 4.03257 14.0639 3.97103Z" fill="#63019C"/>
</svg>
