<svg width="142" height="115" viewBox="0 0 142 115" fill="none" xmlns="http://www.w3.org/2000/svg">
<path d="M14.7355 66.24C13.6155 66.24 12.6475 66.104 11.8315 65.832C11.0155 65.56 10.3355 65.208 9.79148 64.776C9.26348 64.328 8.86348 63.848 8.59148 63.336C8.31948 62.808 8.17548 62.288 8.15948 61.776C8.15948 61.632 8.20748 61.52 8.30348 61.44C8.41548 61.344 8.54348 61.296 8.68748 61.296H10.8475C11.0075 61.296 11.1435 61.328 11.2555 61.392C11.3675 61.456 11.4635 61.584 11.5435 61.776C11.6875 62.208 11.9195 62.552 12.2395 62.808C12.5755 63.064 12.9595 63.248 13.3915 63.36C13.8235 63.456 14.2795 63.504 14.7595 63.504C15.7195 63.504 16.4795 63.28 17.0395 62.832C17.6155 62.368 17.9035 61.712 17.9035 60.864C17.9035 60.016 17.6395 59.408 17.1115 59.04C16.5835 58.656 15.8475 58.464 14.9035 58.464H12.4315C12.2555 58.464 12.1115 58.416 11.9995 58.32C11.8875 58.208 11.8315 58.064 11.8315 57.888V56.88C11.8315 56.72 11.8635 56.584 11.9275 56.472C12.0075 56.344 12.0875 56.24 12.1675 56.16L16.4635 51.96H9.59948C9.42348 51.96 9.27948 51.904 9.16748 51.792C9.07148 51.68 9.02348 51.544 9.02348 51.384V49.8C9.02348 49.624 9.07148 49.48 9.16748 49.368C9.27948 49.256 9.42348 49.2 9.59948 49.2H19.8955C20.0715 49.2 20.2155 49.256 20.3275 49.368C20.4395 49.48 20.4955 49.624 20.4955 49.8V51.24C20.4955 51.384 20.4635 51.512 20.3995 51.624C20.3355 51.736 20.2635 51.832 20.1835 51.912L16.0315 56.184L16.3195 56.208C17.2955 56.288 18.1595 56.512 18.9115 56.88C19.6795 57.232 20.2715 57.752 20.6875 58.44C21.1195 59.128 21.3355 59.992 21.3355 61.032C21.3355 62.12 21.0475 63.056 20.4715 63.84C19.9115 64.608 19.1355 65.2 18.1435 65.616C17.1515 66.032 16.0155 66.24 14.7355 66.24ZM24.0447 66C23.8847 66 23.7487 65.944 23.6367 65.832C23.5247 65.72 23.4687 65.584 23.4687 65.424V64.2C23.4687 64.056 23.5007 63.888 23.5647 63.696C23.6447 63.488 23.8127 63.28 24.0687 63.072L27.8607 59.304C28.9167 58.472 29.7647 57.768 30.4047 57.192C31.0607 56.6 31.5327 56.064 31.8207 55.584C32.1247 55.088 32.2767 54.6 32.2767 54.12C32.2767 53.4 32.0767 52.816 31.6767 52.368C31.2927 51.92 30.6767 51.696 29.8287 51.696C29.2687 51.696 28.7967 51.816 28.4127 52.056C28.0287 52.28 27.7247 52.584 27.5007 52.968C27.2927 53.352 27.1487 53.776 27.0687 54.24C27.0367 54.448 26.9487 54.592 26.8047 54.672C26.6607 54.752 26.5167 54.792 26.3727 54.792H24.2367C24.0927 54.792 23.9727 54.744 23.8767 54.648C23.7807 54.552 23.7327 54.44 23.7327 54.312C23.7487 53.624 23.8927 52.96 24.1647 52.32C24.4367 51.664 24.8287 51.088 25.3407 50.592C25.8687 50.08 26.5087 49.672 27.2607 49.368C28.0127 49.064 28.8607 48.912 29.8047 48.912C31.1327 48.912 32.2287 49.136 33.0927 49.584C33.9727 50.032 34.6287 50.64 35.0607 51.408C35.5087 52.176 35.7327 53.04 35.7327 54C35.7327 54.752 35.5887 55.448 35.3007 56.088C35.0127 56.712 34.5967 57.32 34.0527 57.912C33.5087 58.488 32.8527 59.08 32.0847 59.688L28.6767 63.144H35.5167C35.6927 63.144 35.8287 63.2 35.9247 63.312C36.0367 63.408 36.0927 63.544 36.0927 63.72V65.424C36.0927 65.584 36.0367 65.72 35.9247 65.832C35.8287 65.944 35.6927 66 35.5167 66H24.0447Z" fill="black"/>
<path d="M11.0091 13C10.9158 13 10.8365 12.972 10.7711 12.916C10.7151 12.8507 10.6871 12.7713 10.6871 12.678V4.446H7.99915C7.90582 4.446 7.82648 4.418 7.76115 4.362C7.70515 4.29667 7.67715 4.21733 7.67715 4.124V3.536C7.67715 3.43333 7.70515 3.354 7.76115 3.298C7.82648 3.23267 7.90582 3.2 7.99915 3.2H14.7471C14.8498 3.2 14.9291 3.23267 14.9851 3.298C15.0505 3.354 15.0831 3.43333 15.0831 3.536V4.124C15.0831 4.21733 15.0505 4.29667 14.9851 4.362C14.9291 4.418 14.8498 4.446 14.7471 4.446H12.0731V12.678C12.0731 12.7713 12.0405 12.8507 11.9751 12.916C11.9191 12.972 11.8398 13 11.7371 13H11.0091ZM17.9587 13.14C17.2494 13.14 16.6567 13.0047 16.1807 12.734C15.7047 12.4633 15.3407 12.09 15.0887 11.614C14.8367 11.1287 14.6967 10.578 14.6687 9.962C14.6594 9.80333 14.6547 9.60267 14.6547 9.36C14.6547 9.108 14.6594 8.90733 14.6687 8.758C14.6967 8.13267 14.8367 7.582 15.0887 7.106C15.3501 6.63 15.7187 6.25667 16.1947 5.986C16.6707 5.71533 17.2587 5.58 17.9587 5.58C18.6587 5.58 19.2467 5.71533 19.7227 5.986C20.1987 6.25667 20.5627 6.63 20.8147 7.106C21.0761 7.582 21.2207 8.13267 21.2487 8.758C21.2581 8.90733 21.2627 9.108 21.2627 9.36C21.2627 9.60267 21.2581 9.80333 21.2487 9.962C21.2207 10.578 21.0807 11.1287 20.8287 11.614C20.5767 12.09 20.2127 12.4633 19.7367 12.734C19.2607 13.0047 18.6681 13.14 17.9587 13.14ZM17.9587 12.062C18.5374 12.062 18.9994 11.88 19.3447 11.516C19.6901 11.1427 19.8767 10.6013 19.9047 9.892C19.9141 9.752 19.9187 9.57467 19.9187 9.36C19.9187 9.14533 19.9141 8.968 19.9047 8.828C19.8767 8.11867 19.6901 7.582 19.3447 7.218C18.9994 6.84467 18.5374 6.658 17.9587 6.658C17.3801 6.658 16.9134 6.84467 16.5587 7.218C16.2134 7.582 16.0314 8.11867 16.0127 8.828C16.0034 8.968 15.9987 9.14533 15.9987 9.36C15.9987 9.57467 16.0034 9.752 16.0127 9.892C16.0314 10.6013 16.2134 11.1427 16.5587 11.516C16.9134 11.88 17.3801 12.062 17.9587 12.062ZM25.6354 13C25.1128 13 24.6881 12.902 24.3614 12.706C24.0348 12.5007 23.7968 12.216 23.6474 11.852C23.4981 11.4787 23.4234 11.04 23.4234 10.536V6.84H22.3314C22.2381 6.84 22.1588 6.812 22.0934 6.756C22.0374 6.69067 22.0094 6.61133 22.0094 6.518V6.042C22.0094 5.94867 22.0374 5.874 22.0934 5.818C22.1588 5.75267 22.2381 5.72 22.3314 5.72H23.4234V3.382C23.4234 3.28867 23.4514 3.214 23.5074 3.158C23.5728 3.09267 23.6521 3.06 23.7454 3.06H24.4034C24.4968 3.06 24.5714 3.09267 24.6274 3.158C24.6928 3.214 24.7254 3.28867 24.7254 3.382V5.72H26.4614C26.5548 5.72 26.6294 5.75267 26.6854 5.818C26.7508 5.874 26.7834 5.94867 26.7834 6.042V6.518C26.7834 6.61133 26.7508 6.69067 26.6854 6.756C26.6294 6.812 26.5548 6.84 26.4614 6.84H24.7254V10.438C24.7254 10.8767 24.8001 11.222 24.9494 11.474C25.0988 11.726 25.3648 11.852 25.7474 11.852H26.6014C26.6948 11.852 26.7694 11.8847 26.8254 11.95C26.8908 12.006 26.9234 12.0807 26.9234 12.174V12.678C26.9234 12.7713 26.8908 12.8507 26.8254 12.916C26.7694 12.972 26.6948 13 26.6014 13H25.6354ZM30.1382 13.14C29.6715 13.14 29.2468 13.0467 28.8642 12.86C28.4815 12.6733 28.1735 12.4213 27.9402 12.104C27.7068 11.7867 27.5902 11.4273 27.5902 11.026C27.5902 10.382 27.8515 9.86867 28.3742 9.486C28.8968 9.10333 29.5782 8.85133 30.4182 8.73L32.5042 8.436V8.03C32.5042 7.582 32.3735 7.232 32.1122 6.98C31.8602 6.728 31.4448 6.602 30.8662 6.602C30.4462 6.602 30.1055 6.686 29.8442 6.854C29.5922 7.022 29.4148 7.23667 29.3122 7.498C29.2562 7.638 29.1582 7.708 29.0182 7.708H28.3882C28.2855 7.708 28.2062 7.68 28.1502 7.624C28.1035 7.55867 28.0802 7.484 28.0802 7.4C28.0802 7.26 28.1315 7.08733 28.2342 6.882C28.3462 6.67667 28.5142 6.476 28.7382 6.28C28.9622 6.084 29.2468 5.92067 29.5922 5.79C29.9468 5.65 30.3762 5.58 30.8802 5.58C31.4402 5.58 31.9115 5.65467 32.2942 5.804C32.6768 5.944 32.9755 6.13533 33.1902 6.378C33.4142 6.62067 33.5728 6.896 33.6662 7.204C33.7688 7.512 33.8202 7.82467 33.8202 8.142V12.678C33.8202 12.7713 33.7875 12.8507 33.7222 12.916C33.6662 12.972 33.5915 13 33.4982 13H32.8542C32.7515 13 32.6722 12.972 32.6162 12.916C32.5602 12.8507 32.5322 12.7713 32.5322 12.678V12.076C32.4108 12.244 32.2475 12.412 32.0422 12.58C31.8368 12.7387 31.5802 12.874 31.2722 12.986C30.9642 13.0887 30.5862 13.14 30.1382 13.14ZM30.4322 12.09C30.8148 12.09 31.1648 12.0107 31.4822 11.852C31.7995 11.684 32.0468 11.4273 32.2242 11.082C32.4108 10.7367 32.5042 10.3027 32.5042 9.78V9.388L30.8802 9.626C30.2175 9.71933 29.7182 9.878 29.3822 10.102C29.0462 10.3167 28.8782 10.592 28.8782 10.928C28.8782 11.1893 28.9528 11.4087 29.1022 11.586C29.2608 11.754 29.4568 11.88 29.6902 11.964C29.9328 12.048 30.1802 12.09 30.4322 12.09ZM36.0148 13C35.9215 13 35.8421 12.972 35.7768 12.916C35.7208 12.8507 35.6928 12.7713 35.6928 12.678V3.382C35.6928 3.28867 35.7208 3.214 35.7768 3.158C35.8421 3.09267 35.9215 3.06 36.0148 3.06H36.6728C36.7755 3.06 36.8548 3.09267 36.9108 3.158C36.9668 3.214 36.9948 3.28867 36.9948 3.382V12.678C36.9948 12.7713 36.9668 12.8507 36.9108 12.916C36.8548 12.972 36.7755 13 36.6728 13H36.0148ZM45.5387 13.14C44.7267 13.14 44.0454 13.0187 43.4947 12.776C42.9441 12.524 42.5194 12.202 42.2207 11.81C41.9314 11.4087 41.7774 10.984 41.7587 10.536C41.7587 10.4613 41.7867 10.396 41.8427 10.34C41.9081 10.2747 41.9827 10.242 42.0667 10.242H42.7807C42.8927 10.242 42.9767 10.27 43.0327 10.326C43.0887 10.382 43.1261 10.4473 43.1447 10.522C43.1914 10.746 43.3034 10.97 43.4807 11.194C43.6674 11.4087 43.9241 11.5907 44.2507 11.74C44.5867 11.88 45.0161 11.95 45.5387 11.95C46.3414 11.95 46.9294 11.81 47.3027 11.53C47.6854 11.2407 47.8767 10.858 47.8767 10.382C47.8767 10.0553 47.7741 9.794 47.5687 9.598C47.3727 9.39267 47.0694 9.21067 46.6587 9.052C46.2481 8.89333 45.7161 8.72067 45.0627 8.534C44.3814 8.338 43.8167 8.12333 43.3687 7.89C42.9207 7.65667 42.5847 7.36733 42.3607 7.022C42.1461 6.67667 42.0387 6.238 42.0387 5.706C42.0387 5.202 42.1741 4.754 42.4447 4.362C42.7154 3.96067 43.1027 3.64333 43.6067 3.41C44.1201 3.17667 44.7407 3.06 45.4687 3.06C46.0474 3.06 46.5514 3.13933 46.9807 3.298C47.4194 3.44733 47.7834 3.65267 48.0727 3.914C48.3621 4.166 48.5814 4.44133 48.7307 4.74C48.8801 5.02933 48.9594 5.314 48.9687 5.594C48.9687 5.65933 48.9454 5.72467 48.8987 5.79C48.8521 5.846 48.7774 5.874 48.6747 5.874H47.9327C47.8674 5.874 47.7974 5.85533 47.7227 5.818C47.6574 5.78067 47.6061 5.71067 47.5687 5.608C47.5127 5.22533 47.2981 4.90333 46.9247 4.642C46.5514 4.38067 46.0661 4.25 45.4687 4.25C44.8621 4.25 44.3674 4.36667 43.9847 4.6C43.6114 4.83333 43.4247 5.19733 43.4247 5.692C43.4247 6.00933 43.5134 6.27533 43.6907 6.49C43.8681 6.69533 44.1481 6.87733 44.5307 7.036C44.9134 7.19467 45.4127 7.36267 46.0287 7.54C46.7754 7.74533 47.3867 7.96467 47.8627 8.198C48.3387 8.422 48.6887 8.70667 48.9127 9.052C49.1461 9.388 49.2627 9.822 49.2627 10.354C49.2627 10.942 49.1087 11.446 48.8007 11.866C48.4927 12.2767 48.0587 12.594 47.4987 12.818C46.9481 13.0327 46.2947 13.14 45.5387 13.14ZM53.6037 13C53.081 13 52.6564 12.902 52.3297 12.706C52.003 12.5007 51.765 12.216 51.6157 11.852C51.4664 11.4787 51.3917 11.04 51.3917 10.536V6.84H50.2997C50.2064 6.84 50.127 6.812 50.0617 6.756C50.0057 6.69067 49.9777 6.61133 49.9777 6.518V6.042C49.9777 5.94867 50.0057 5.874 50.0617 5.818C50.127 5.75267 50.2064 5.72 50.2997 5.72H51.3917V3.382C51.3917 3.28867 51.4197 3.214 51.4757 3.158C51.541 3.09267 51.6204 3.06 51.7137 3.06H52.3717C52.465 3.06 52.5397 3.09267 52.5957 3.158C52.661 3.214 52.6937 3.28867 52.6937 3.382V5.72H54.4297C54.523 5.72 54.5977 5.75267 54.6537 5.818C54.719 5.874 54.7517 5.94867 54.7517 6.042V6.518C54.7517 6.61133 54.719 6.69067 54.6537 6.756C54.5977 6.812 54.523 6.84 54.4297 6.84H52.6937V10.438C52.6937 10.8767 52.7684 11.222 52.9177 11.474C53.067 11.726 53.333 11.852 53.7157 11.852H54.5697C54.663 11.852 54.7377 11.8847 54.7937 11.95C54.859 12.006 54.8917 12.0807 54.8917 12.174V12.678C54.8917 12.7713 54.859 12.8507 54.7937 12.916C54.7377 12.972 54.663 13 54.5697 13H53.6037ZM58.7925 13.14C58.1951 13.14 57.6865 13.0093 57.2665 12.748C56.8558 12.4773 56.5431 12.104 56.3285 11.628C56.1138 11.152 56.0065 10.606 56.0065 9.99V6.042C56.0065 5.94867 56.0345 5.874 56.0905 5.818C56.1558 5.75267 56.2351 5.72 56.3285 5.72H57.0285C57.1218 5.72 57.1965 5.75267 57.2525 5.818C57.3178 5.874 57.3505 5.94867 57.3505 6.042V9.92C57.3505 11.3107 57.9571 12.006 59.1705 12.006C59.7491 12.006 60.2111 11.824 60.5565 11.46C60.9111 11.0867 61.0885 10.5733 61.0885 9.92V6.042C61.0885 5.94867 61.1165 5.874 61.1725 5.818C61.2378 5.75267 61.3171 5.72 61.4105 5.72H62.0965C62.1991 5.72 62.2785 5.75267 62.3345 5.818C62.3905 5.874 62.4185 5.94867 62.4185 6.042V12.678C62.4185 12.7713 62.3905 12.8507 62.3345 12.916C62.2785 12.972 62.1991 13 62.0965 13H61.4525C61.3591 13 61.2798 12.972 61.2145 12.916C61.1585 12.8507 61.1305 12.7713 61.1305 12.678V12.062C60.8785 12.3887 60.5705 12.65 60.2065 12.846C59.8518 13.042 59.3805 13.14 58.7925 13.14ZM67.0043 13.14C66.491 13.14 66.0477 13.0513 65.6743 12.874C65.301 12.6873 64.993 12.44 64.7503 12.132C64.517 11.8147 64.3397 11.4553 64.2183 11.054C64.1063 10.6527 64.041 10.228 64.0223 9.78C64.013 9.63067 64.0083 9.49067 64.0083 9.36C64.0083 9.22933 64.013 9.08933 64.0223 8.94C64.041 8.50133 64.1063 8.08133 64.2183 7.68C64.3397 7.27867 64.517 6.91933 64.7503 6.602C64.993 6.28467 65.301 6.03733 65.6743 5.86C66.0477 5.67333 66.491 5.58 67.0043 5.58C67.555 5.58 68.0123 5.678 68.3763 5.874C68.7403 6.07 69.039 6.31267 69.2723 6.602V3.382C69.2723 3.28867 69.3003 3.214 69.3563 3.158C69.4217 3.09267 69.501 3.06 69.5943 3.06H70.2663C70.3597 3.06 70.4343 3.09267 70.4903 3.158C70.5557 3.214 70.5883 3.28867 70.5883 3.382V12.678C70.5883 12.7713 70.5557 12.8507 70.4903 12.916C70.4343 12.972 70.3597 13 70.2663 13H69.6363C69.5337 13 69.4543 12.972 69.3983 12.916C69.3423 12.8507 69.3143 12.7713 69.3143 12.678V12.09C69.081 12.3887 68.7777 12.6407 68.4043 12.846C68.031 13.042 67.5643 13.14 67.0043 13.14ZM67.2983 12.006C67.765 12.006 68.1383 11.8987 68.4183 11.684C68.6983 11.4693 68.9083 11.1987 69.0483 10.872C69.1883 10.536 69.263 10.1953 69.2723 9.85C69.2817 9.70067 69.2863 9.52333 69.2863 9.318C69.2863 9.10333 69.2817 8.92133 69.2723 8.772C69.263 8.44533 69.1837 8.12333 69.0343 7.806C68.8943 7.48867 68.6797 7.22733 68.3903 7.022C68.1103 6.81667 67.7463 6.714 67.2983 6.714C66.8223 6.714 66.4443 6.82133 66.1643 7.036C65.8843 7.24133 65.6837 7.51667 65.5623 7.862C65.441 8.198 65.371 8.562 65.3523 8.954C65.343 9.22467 65.343 9.49533 65.3523 9.766C65.371 10.158 65.441 10.5267 65.5623 10.872C65.6837 11.208 65.8843 11.4833 66.1643 11.698C66.4443 11.9033 66.8223 12.006 67.2983 12.006ZM73.7905 15.66C73.7158 15.66 73.6505 15.632 73.5945 15.576C73.5385 15.52 73.5105 15.4547 73.5105 15.38C73.5105 15.3427 73.5152 15.3053 73.5245 15.268C73.5338 15.2307 73.5525 15.184 73.5805 15.128L74.6585 12.566L71.9845 6.252C71.9378 6.14 71.9145 6.06067 71.9145 6.014C71.9145 5.93 71.9425 5.86 71.9985 5.804C72.0545 5.748 72.1245 5.72 72.2085 5.72H72.8945C72.9878 5.72 73.0625 5.74333 73.1185 5.79C73.1745 5.83667 73.2118 5.89267 73.2305 5.958L75.3585 11.054L77.5425 5.958C77.5705 5.89267 77.6078 5.83667 77.6545 5.79C77.7105 5.74333 77.7898 5.72 77.8925 5.72H78.5505C78.6345 5.72 78.7045 5.748 78.7605 5.804C78.8165 5.86 78.8445 5.92533 78.8445 6C78.8445 6.04667 78.8212 6.13067 78.7745 6.252L74.7985 15.422C74.7705 15.4873 74.7285 15.5433 74.6725 15.59C74.6258 15.6367 74.5512 15.66 74.4485 15.66H73.7905ZM83.4859 13C83.3833 13 83.3039 12.972 83.2479 12.916C83.1919 12.8507 83.1639 12.7713 83.1639 12.678V3.536C83.1639 3.43333 83.1919 3.354 83.2479 3.298C83.3039 3.23267 83.3833 3.2 83.4859 3.2H84.1999C84.3026 3.2 84.3819 3.23267 84.4379 3.298C84.5033 3.354 84.5359 3.43333 84.5359 3.536V7.4H89.3519V3.536C89.3519 3.43333 89.3799 3.354 89.4359 3.298C89.5013 3.23267 89.5806 3.2 89.6739 3.2H90.3879C90.4906 3.2 90.5699 3.23267 90.6259 3.298C90.6913 3.354 90.7239 3.43333 90.7239 3.536V12.678C90.7239 12.7713 90.6913 12.8507 90.6259 12.916C90.5699 12.972 90.4906 13 90.3879 13H89.6739C89.5806 13 89.5013 12.972 89.4359 12.916C89.3799 12.8507 89.3519 12.7713 89.3519 12.678V8.66H84.5359V12.678C84.5359 12.7713 84.5033 12.8507 84.4379 12.916C84.3819 12.972 84.3026 13 84.1999 13H83.4859ZM95.7904 13.14C95.0811 13.14 94.4884 13.0047 94.0124 12.734C93.5364 12.4633 93.1724 12.09 92.9204 11.614C92.6684 11.1287 92.5284 10.578 92.5004 9.962C92.4911 9.80333 92.4864 9.60267 92.4864 9.36C92.4864 9.108 92.4911 8.90733 92.5004 8.758C92.5284 8.13267 92.6684 7.582 92.9204 7.106C93.1817 6.63 93.5504 6.25667 94.0264 5.986C94.5024 5.71533 95.0904 5.58 95.7904 5.58C96.4904 5.58 97.0784 5.71533 97.5544 5.986C98.0304 6.25667 98.3944 6.63 98.6464 7.106C98.9077 7.582 99.0524 8.13267 99.0804 8.758C99.0897 8.90733 99.0944 9.108 99.0944 9.36C99.0944 9.60267 99.0897 9.80333 99.0804 9.962C99.0524 10.578 98.9124 11.1287 98.6604 11.614C98.4084 12.09 98.0444 12.4633 97.5684 12.734C97.0924 13.0047 96.4997 13.14 95.7904 13.14ZM95.7904 12.062C96.3691 12.062 96.8311 11.88 97.1764 11.516C97.5217 11.1427 97.7084 10.6013 97.7364 9.892C97.7457 9.752 97.7504 9.57467 97.7504 9.36C97.7504 9.14533 97.7457 8.968 97.7364 8.828C97.7084 8.11867 97.5217 7.582 97.1764 7.218C96.8311 6.84467 96.3691 6.658 95.7904 6.658C95.2117 6.658 94.7451 6.84467 94.3904 7.218C94.0451 7.582 93.8631 8.11867 93.8444 8.828C93.8351 8.968 93.8304 9.14533 93.8304 9.36C93.8304 9.57467 93.8351 9.752 93.8444 9.892C93.8631 10.6013 94.0451 11.1427 94.3904 11.516C94.7451 11.88 95.2117 12.062 95.7904 12.062ZM103.409 13.14C102.812 13.14 102.303 13.0093 101.883 12.748C101.473 12.4773 101.16 12.104 100.945 11.628C100.731 11.152 100.623 10.606 100.623 9.99V6.042C100.623 5.94867 100.651 5.874 100.707 5.818C100.773 5.75267 100.852 5.72 100.945 5.72H101.645C101.739 5.72 101.813 5.75267 101.869 5.818C101.935 5.874 101.967 5.94867 101.967 6.042V9.92C101.967 11.3107 102.574 12.006 103.787 12.006C104.366 12.006 104.828 11.824 105.173 11.46C105.528 11.0867 105.705 10.5733 105.705 9.92V6.042C105.705 5.94867 105.733 5.874 105.789 5.818C105.855 5.75267 105.934 5.72 106.027 5.72H106.713C106.816 5.72 106.895 5.75267 106.951 5.818C107.007 5.874 107.035 5.94867 107.035 6.042V12.678C107.035 12.7713 107.007 12.8507 106.951 12.916C106.895 12.972 106.816 13 106.713 13H106.069C105.976 13 105.897 12.972 105.831 12.916C105.775 12.8507 105.747 12.7713 105.747 12.678V12.062C105.495 12.3887 105.187 12.65 104.823 12.846C104.469 13.042 103.997 13.14 103.409 13.14ZM109.283 13C109.19 13 109.111 12.972 109.045 12.916C108.989 12.8507 108.961 12.7713 108.961 12.678V6.056C108.961 5.96267 108.989 5.88333 109.045 5.818C109.111 5.75267 109.19 5.72 109.283 5.72H109.927C110.021 5.72 110.1 5.75267 110.165 5.818C110.231 5.88333 110.263 5.96267 110.263 6.056V6.672C110.45 6.35467 110.707 6.11667 111.033 5.958C111.36 5.79933 111.752 5.72 112.209 5.72H112.769C112.863 5.72 112.937 5.75267 112.993 5.818C113.049 5.874 113.077 5.94867 113.077 6.042V6.616C113.077 6.70933 113.049 6.784 112.993 6.84C112.937 6.896 112.863 6.924 112.769 6.924H111.929C111.425 6.924 111.029 7.07333 110.739 7.372C110.45 7.66133 110.305 8.058 110.305 8.562V12.678C110.305 12.7713 110.273 12.8507 110.207 12.916C110.142 12.972 110.063 13 109.969 13H109.283ZM116.646 13.14C116.123 13.14 115.675 13.0747 115.302 12.944C114.928 12.8133 114.625 12.6547 114.392 12.468C114.158 12.2813 113.981 12.0947 113.86 11.908C113.748 11.7213 113.687 11.572 113.678 11.46C113.668 11.3573 113.701 11.278 113.776 11.222C113.85 11.166 113.925 11.138 114 11.138H114.616C114.672 11.138 114.714 11.1473 114.742 11.166C114.779 11.1753 114.826 11.2127 114.882 11.278C115.003 11.4087 115.138 11.5393 115.288 11.67C115.437 11.8007 115.619 11.908 115.834 11.992C116.058 12.076 116.333 12.118 116.66 12.118C117.136 12.118 117.528 12.0293 117.836 11.852C118.144 11.6653 118.298 11.3947 118.298 11.04C118.298 10.8067 118.232 10.62 118.102 10.48C117.98 10.34 117.756 10.214 117.43 10.102C117.112 9.99 116.674 9.87333 116.114 9.752C115.554 9.62133 115.11 9.46267 114.784 9.276C114.457 9.08 114.224 8.85133 114.084 8.59C113.944 8.31933 113.874 8.016 113.874 7.68C113.874 7.33467 113.976 7.00333 114.182 6.686C114.387 6.35933 114.686 6.09333 115.078 5.888C115.479 5.68267 115.978 5.58 116.576 5.58C117.061 5.58 117.476 5.64067 117.822 5.762C118.167 5.88333 118.452 6.03733 118.676 6.224C118.9 6.40133 119.068 6.57867 119.18 6.756C119.292 6.93333 119.352 7.08267 119.362 7.204C119.371 7.29733 119.343 7.37667 119.278 7.442C119.212 7.498 119.138 7.526 119.054 7.526H118.466C118.4 7.526 118.344 7.512 118.298 7.484C118.26 7.456 118.223 7.42333 118.186 7.386C118.092 7.26467 117.98 7.14333 117.85 7.022C117.728 6.90067 117.565 6.80267 117.36 6.728C117.164 6.644 116.902 6.602 116.576 6.602C116.109 6.602 115.759 6.7 115.526 6.896C115.292 7.092 115.176 7.33933 115.176 7.638C115.176 7.81533 115.227 7.974 115.33 8.114C115.432 8.254 115.628 8.38 115.918 8.492C116.207 8.604 116.636 8.72533 117.206 8.856C117.822 8.97733 118.307 9.14067 118.662 9.346C119.016 9.55133 119.268 9.78933 119.418 10.06C119.567 10.3307 119.642 10.6433 119.642 10.998C119.642 11.39 119.525 11.7493 119.292 12.076C119.068 12.4027 118.732 12.664 118.284 12.86C117.845 13.0467 117.299 13.14 116.646 13.14Z" fill="black" fill-opacity="0.7"/>
</svg>
