<svg width="46" height="46" viewBox="0 0 46 46" fill="none" xmlns="http://www.w3.org/2000/svg">
<rect width="46" height="46" rx="22.08" fill="#BABABA"/>
<path d="M16.6368 13.3844C17.1492 12.8719 17.9802 12.8719 18.4927 13.3844C19.0051 13.8969 19.0051 14.7278 18.4927 15.2403L15.4836 18.2493H26.751C31.0997 18.2493 34.625 21.7746 34.625 26.1233C34.625 30.472 31.0997 33.9973 26.751 33.9973H20.1894C19.4646 33.9973 18.8771 33.4097 18.8771 32.6849C18.8771 31.9601 19.4646 31.3726 20.1894 31.3726H26.751C29.6501 31.3726 32.0003 29.0224 32.0003 26.1233C32.0003 23.2242 29.6501 20.874 26.751 20.874H15.4836L18.4927 23.883C19.0051 24.3955 19.0051 25.2264 18.4927 25.7389C17.9802 26.2514 17.1492 26.2514 16.6368 25.7389L11.3875 20.4896C11.1414 20.2435 11.0031 19.9097 11.0031 19.5617C11.0031 19.2136 11.1414 18.8798 11.3875 18.6337L16.6368 13.3844Z" fill="#1A1A1A"/>
</svg>
