<svg width="14" height="14" viewBox="0 0 14 14" fill="none" xmlns="http://www.w3.org/2000/svg">
<path d="M12.7331 8.39063C12.5563 8.39063 12.3867 8.46086 12.2617 8.58589C12.1366 8.71091 12.0664 8.88048 12.0664 9.05729V11.724C12.0664 11.9008 11.9962 12.0703 11.8711 12.1954C11.7461 12.3204 11.5766 12.3906 11.3997 12.3906H2.06641C1.8896 12.3906 1.72003 12.3204 1.595 12.1954C1.46998 12.0703 1.39974 11.9008 1.39974 11.724V9.05729C1.39974 8.88048 1.3295 8.71091 1.20448 8.58589C1.07945 8.46086 0.909884 8.39063 0.733073 8.39063C0.556262 8.39063 0.386693 8.46086 0.261668 8.58589C0.136644 8.71091 0.0664063 8.88048 0.0664062 9.05729V11.724C0.0664063 12.2544 0.27712 12.7631 0.652193 13.1382C1.02727 13.5132 1.53597 13.724 2.06641 13.724H11.3997C11.9302 13.724 12.4389 13.5132 12.814 13.1382C13.189 12.7631 13.3997 12.2544 13.3997 11.724V9.05729C13.3997 8.88048 13.3295 8.71091 13.2045 8.58589C13.0795 8.46086 12.9099 8.39063 12.7331 8.39063ZM6.25974 9.53063C6.32314 9.59132 6.39791 9.6389 6.47974 9.67063C6.55954 9.7059 6.64583 9.72411 6.73307 9.72411C6.82032 9.72411 6.90661 9.7059 6.98641 9.67063C7.06824 9.6389 7.143 9.59132 7.20641 9.53063L9.87307 6.86396C9.99861 6.73842 10.0691 6.56816 10.0691 6.39063C10.0691 6.21309 9.99861 6.04283 9.87307 5.91729C9.74754 5.79176 9.57727 5.72123 9.39974 5.72123C9.22221 5.72123 9.05194 5.79176 8.92641 5.91729L7.39974 7.45063V1.05729C7.39974 0.880481 7.3295 0.710911 7.20448 0.585887C7.07945 0.460863 6.90988 0.390625 6.73307 0.390625C6.55626 0.390625 6.38669 0.460863 6.26167 0.585887C6.13664 0.710911 6.06641 0.880481 6.06641 1.05729V7.45063L4.53974 5.91729C4.47758 5.85513 4.40379 5.80583 4.32257 5.77219C4.24136 5.73854 4.15431 5.72123 4.06641 5.72123C3.9785 5.72123 3.89145 5.73854 3.81024 5.77219C3.72903 5.80583 3.65523 5.85513 3.59307 5.91729C3.53091 5.97945 3.48161 6.05324 3.44797 6.13446C3.41433 6.21567 3.39701 6.30272 3.39701 6.39063C3.39701 6.47853 3.41433 6.56558 3.44797 6.64679C3.48161 6.72801 3.53091 6.8018 3.59307 6.86396L6.25974 9.53063Z" fill="#8D8E96"/>
</svg>
