<svg width="45" height="46" viewBox="0 0 45 46" fill="none" xmlns="http://www.w3.org/2000/svg">
<g filter="url(#filter0_d_1457_24500)">
<rect x="5.37891" y="39.1641" width="35.5556" height="34.1333" rx="7.82222" transform="rotate(-90 5.37891 39.1641)" fill="#553C9A" shape-rendering="crispEdges"/>
<path d="M19.7333 26.8169H19.3458C16.2455 26.8169 14.6953 26.0419 14.6953 22.1665V18.2911C14.6953 15.1908 16.2455 13.6406 19.3458 13.6406H25.5464C28.6467 13.6406 30.1969 15.1908 30.1969 18.2911V22.1665C30.1969 25.2668 28.6467 26.8169 25.5464 26.8169H25.1589C24.9186 26.8169 24.6861 26.9332 24.5388 27.127L23.3762 28.6771C22.8646 29.3592 22.0275 29.3592 21.516 28.6771L20.3534 27.127C20.2294 26.9565 19.9426 26.8169 19.7333 26.8169Z" stroke="white" stroke-width="1.16262" stroke-miterlimit="10" stroke-linecap="round" stroke-linejoin="round"/>
<path d="M25.5434 20.6141H25.5504" stroke="white" stroke-width="1.55016" stroke-linecap="round" stroke-linejoin="round"/>
<path d="M22.4419 20.6141H22.4488" stroke="white" stroke-width="1.55016" stroke-linecap="round" stroke-linejoin="round"/>
<path d="M19.3442 20.6141H19.3512" stroke="white" stroke-width="1.55016" stroke-linecap="round" stroke-linejoin="round"/>
</g>
<defs>
<filter id="filter0_d_1457_24500" x="0.491457" y="0.351075" width="43.9077" height="45.3296" filterUnits="userSpaceOnUse" color-interpolation-filters="sRGB">
<feFlood flood-opacity="0" result="BackgroundImageFix"/>
<feColorMatrix in="SourceAlpha" type="matrix" values="0 0 0 0 0 0 0 0 0 0 0 0 0 0 0 0 0 0 127 0" result="hardAlpha"/>
<feOffset dy="1.62915"/>
<feGaussianBlur stdDeviation="2.44372"/>
<feComposite in2="hardAlpha" operator="out"/>
<feColorMatrix type="matrix" values="0 0 0 0 0 0 0 0 0 0 0 0 0 0 0 0 0 0 0.15 0"/>
<feBlend mode="normal" in2="BackgroundImageFix" result="effect1_dropShadow_1457_24500"/>
<feBlend mode="normal" in="SourceGraphic" in2="effect1_dropShadow_1457_24500" result="shape"/>
</filter>
</defs>
</svg>
